<svg width="458" height="458" fill="none" xmlns="http://www.w3.org/2000/svg"><g clip-path="url(#clip0_2_17)"><path d="M229 458c126.473 0 229-102.527 229-229S355.473 0 229 0 0 102.527 0 229s102.527 229 229 229z" fill="#3D77D9"/><path d="M88.522 93.655H12.514s-8.893 23.581-7.258 31.482c3.048 14.666 36.192 36.039 36.192 50.93 0 14.891-33.136 36.26-36.192 50.931-1.635 7.888 7.258 31.469 7.258 31.469h76.008s8.882-23.581 7.24-31.469c-3.048-14.671-36.197-36.04-36.197-50.936s33.149-36.264 36.197-50.925c1.642-7.901-7.24-31.482-7.24-31.482z" fill="#F7F1EB"/><path d="M53.178 176.856c0-8.81 15.615-20.398 22.69-30.246H26.637c7.418 9.866 24.299 21.499 24.299 30.246 0 11.044 1.661 54.139-11.763 64.82-4.628 3.677-21.864 12.642-21.864 12.642h68.96s-4.855-3.669-17.752-9.511c-16.733-7.591-15.339-56.907-15.339-67.951z" fill="#639DFF"/><path d="M93.968 259.033H17.95a.55.55 0 01-.516-.358c-.365-.969-8.922-23.821-7.258-31.785 1.457-7.008 9.345-15.212 17.697-23.893 9.087-9.448 18.485-19.216 18.485-26.922 0-7.706-9.398-17.474-18.485-26.922-8.352-8.695-16.248-16.896-17.704-23.909-1.657-7.961 6.9-30.813 7.258-31.784a.55.55 0 01.523-.358h76.018a.553.553 0 01.515.358c.366.968 8.92 23.821 7.258 31.784-1.459 7.008-9.348 15.214-17.7 23.896-9.08 9.448-18.47 19.216-18.47 26.922 0 7.706 9.396 17.474 18.483 26.922 8.352 8.682 16.241 16.881 17.7 23.894 1.654 7.963-6.9 30.816-7.258 31.784a.551.551 0 01-.528.371zm-75.636-1.104h75.25c1.099-2.981 8.567-23.686 7.085-30.814-1.394-6.702-9.538-15.166-17.414-23.355-9.237-9.603-18.79-19.534-18.79-27.685 0-8.152 9.553-18.083 18.79-27.688 7.876-8.186 16.018-16.653 17.414-23.356 1.482-7.127-5.986-27.832-7.085-30.81h-75.25c-1.096 2.965-8.571 23.67-7.085 30.798 1.394 6.702 9.538 15.169 17.414 23.355 9.238 9.606 18.793 19.537 18.793 27.688 0 8.152-9.555 18.082-18.793 27.685-7.876 8.189-16.017 16.654-17.414 23.356-1.486 7.128 5.99 27.833 7.085 30.813v.013z" fill="#fff"/><path d="M85.133 246.241a.542.542 0 01-.346-.121.542.542 0 01-.204-.37.55.55 0 01.02-.214c2.612-8.92 3.646-15.292 3.003-18.433-1.066-5.128-6.125-11.212-10.41-15.937a.557.557 0 01.033-.784.557.557 0 01.784.033c4.652 5.128 9.56 11.094 10.674 16.453.7 3.363-.316 9.745-3.016 18.968a.552.552 0 01-.538.405zM81.84 136.935a.56.56 0 01-.496-.314.555.555 0 01.065-.582c3.536-4.418 5.56-8.009 6.182-11.012.723-3.477-.596-10.795-3.817-21.164a.551.551 0 111.054-.325c2.285 7.353 4.805 17.091 3.844 21.714-.668 3.216-2.703 6.865-6.402 11.482a.545.545 0 01-.43.201z" fill="#fff"/><path d="M95.905 256.808h-90.7v10.969h90.7v-10.969zm0-172.095h-90.7v10.969h90.7v-10.97z" fill="#0D3579"/><path d="M104.114 251.697h352.695V1.597H104.114v250.1z" fill="#285A94"/><path d="M445.742 219.197V12.664H115.176v206.533h330.566z" fill="#6CABF4"/><path d="M243.333 256.998h10.444a14.182 14.182 0 0014.183 14.183h25.005a14.182 14.182 0 0014.18-14.183h10.452l10.444 55.491v4.64h-95.149v-4.64l10.441-55.491zm84.693 66.483h-95.134a.555.555 0 01-.367-.93.554.554 0 01.367-.174h95.134a.547.547 0 01.59.552.556.556 0 01-.59.552z" fill="#D3E4FF"/><path d="M153.705 148.385h-16.881v46.285h16.881v-46.285zm27.856-9.221H164.68v55.506h16.881v-55.506z" fill="#639DFF"/><path d="M209.416 105.162h-16.881v89.506h16.881v-89.506zm27.858 14.036h-16.881v75.469h16.881v-75.469zm27.895-37.031h-16.88v112.501h16.88v-112.5zm27.856 22.232h-16.881v90.269h16.881v-90.269zm27.858 32.218h-16.881v58.053h16.881v-58.053zm27.855-20.731h-16.881v78.781h16.881v-78.781zm27.876 12.454h-16.881v66.33h16.881v-66.33zm27.858-32.318h-16.881v98.648h16.881V96.022zm27.895 52.363h-16.881v46.285h16.881v-46.285z" fill="#8BDCFF"/><path d="M140.981 456.929h124.063V272.923H140.981v184.006zm-139.92 0h124.063V272.923H1.061v184.006z" fill="#3462B1"/><path d="M140.864 441.57h116.95V268.115h-116.95V441.57zm-131.894 0h116.95V268.115H8.97V441.57z" fill="#fff"/><path d="M154.784 312.479a8.254 8.254 0 100-16.508 8.254 8.254 0 000 16.508zm0 31.672a8.254 8.254 0 100-16.508 8.254 8.254 0 000 16.508zm0 31.669a8.254 8.254 0 100-16.508 8.254 8.254 0 000 16.508zm5.837 29.252a8.253 8.253 0 000-11.673 8.254 8.254 0 00-11.672 0 8.253 8.253 0 000 11.673 8.252 8.252 0 0011.672 0zm-48.446-92.593a8.254 8.254 0 100-16.508 8.254 8.254 0 000 16.508zm0 31.672a8.254 8.254 0 100-16.508 8.254 8.254 0 000 16.508zm0 31.669a8.254 8.254 0 100-16.508 8.254 8.254 0 000 16.508zm.781 31.643a8.254 8.254 0 10-1.626-16.428 8.254 8.254 0 001.626 16.428z" fill="#639DFF"/><path d="M110.696 296.106a24.22 24.22 0 0112.405-13.894 24.238 24.238 0 0133.272 30.114 8.23 8.23 0 01-3.664-.11 20.776 20.776 0 00-1.837-19.539 20.77 20.77 0 00-34.594-.038 20.762 20.762 0 00-1.881 19.534 8.224 8.224 0 01-3.634.186 24.202 24.202 0 01-.067-16.253z" fill="#8BDCFF"/><path d="M110.696 327.775a24.225 24.225 0 0112.405-13.893 24.239 24.239 0 0126.752 3.88 24.236 24.236 0 016.52 26.233 8.212 8.212 0 01-3.664-.11 20.776 20.776 0 00-1.837-19.539 20.77 20.77 0 00-34.594-.038 20.762 20.762 0 00-1.881 19.535 8.263 8.263 0 01-2.222.308 8.575 8.575 0 01-1.412-.123 24.202 24.202 0 01-.067-16.253z" fill="#8BDCFF"/><path d="M110.696 359.445a24.243 24.243 0 0121.611-16.338 24.232 24.232 0 0117.594 6.246 24.244 24.244 0 016.472 26.307 8.222 8.222 0 01-3.664-.11 20.763 20.763 0 00-1.838-19.539 20.761 20.761 0 00-7.478-6.814 20.774 20.774 0 00-28.996 26.313 8.22 8.22 0 01-3.634.183 24.202 24.202 0 01-.067-16.253v.005z" fill="#8BDCFF"/><path d="M110.696 391.114a24.225 24.225 0 0112.405-13.893 24.239 24.239 0 0126.752 3.88 24.247 24.247 0 017.947 16.845 24.243 24.243 0 01-1.427 9.389 8.287 8.287 0 01-3.664-.108 20.776 20.776 0 00-1.837-19.539 20.77 20.77 0 00-34.594-.038 20.762 20.762 0 00-1.881 19.534 8.222 8.222 0 01-3.634.183 24.202 24.202 0 01-.067-16.253z" fill="#8BDCFF"/><path d="M41.017 335.922h10.527v-10.527H41.017v10.527z" fill="#D87355"/><path d="M19.947 335.922h10.526v-10.527H19.947v10.527zm63.211 21.07h10.527v-10.526H83.158v10.526z" fill="#639DFF"/><path d="M62.088 356.992h10.526v-10.526H62.088v10.526z" fill="#D87355"/><path d="M41.017 356.992h10.527v-10.526H41.017v10.526zm-21.07 0h10.526v-10.526H19.947v10.526z" fill="#639DFF"/><path d="M83.158 378.06h10.527v-10.526H83.158v10.526z" fill="#D87355"/><path d="M62.088 378.06h10.526v-10.526H62.088v10.526zm-21.071 0h10.527v-10.526H41.017v10.526z" fill="#639DFF"/><path d="M19.947 378.06h10.526v-10.526H19.947v10.526z" fill="#D87355"/><path d="M83.158 399.131h10.527v-10.527H83.158v10.527zm-21.07 0h10.526v-10.527H62.088v10.527z" fill="#639DFF"/><path d="M41.017 399.131h10.527v-10.527H41.017v10.527z" fill="#D87355"/><path d="M19.947 399.131h10.526v-10.527H19.947v10.527z" fill="#F7F1EB"/><path d="M83.158 420.201h10.527v-10.526H83.158v10.526z" fill="#639DFF"/><path d="M62.088 420.201h10.526v-10.526H62.088v10.526z" fill="#D87355"/><path d="M41.017 420.201h10.527v-10.526H41.017v10.526zm-21.07 0h10.526v-10.526H19.947v10.526z" fill="#639DFF"/><path d="M41.02 304.225h52.665v-18.123H41.02v18.123z" fill="#F7F1EB"/><path d="M287.739 214.594H166.577v53.121h121.162v-53.121z" fill="#8B865C"/><path d="M269.657 316.928c-.015 1.179-.288 43.183-.288 43.183l23.526-1.114 13.199-42.069h-36.437z" fill="#84524D"/><path d="M267.577 356.151l27.428-.358 15.229 49.327s-41.881 13.555-41.974 12.671c-.092-.883-.683-61.64-.683-61.64z" fill="#D3E4FF"/><path d="M287.178 370.565h-11.084a.561.561 0 01-.415-.148.559.559 0 010-.808.543.543 0 01.415-.148h11.084a.544.544 0 01.415.148.537.537 0 01.176.404.56.56 0 01-.176.404.564.564 0 01-.415.148zm-.115 6.917h-10.964a.546.546 0 01-.415-.148.56.56 0 01-.175-.404.555.555 0 01.367-.521.564.564 0 01.223-.031h10.964a.555.555 0 01.367.93.554.554 0 01-.367.174z" fill="#363E44"/><path d="M264.942 324.104h43.162l12.333-62.646a26.394 26.394 0 00-24.276-31.444l-23.581-1.449-7.638 95.539z" fill="#8B865C"/><path d="M134.98 241.684l29.625 28.596 25.112-18.76-24.191-33.349-30.546 23.513z" fill="#84524D"/><path d="M159.194 266.013l15.106 34.372 41.904-27.402-29.35-27.26-27.66 20.29z" fill="#D3E4FF"/><path d="M134.98 248.106l36.88-26.436-22.117-34.09a27.479 27.479 0 00-30.19-11.57 27.494 27.494 0 00-10.184 5.208 27.471 27.471 0 00-8.078 31.743 27.473 27.473 0 006.577 9.567l27.112 25.578z" fill="#8B865C"/><path d="M172.761 268.431a.554.554 0 01-.295-1.019l12.443-7.896a.55.55 0 01.761.17.548.548 0 01-.17.761l-12.444 7.896a.56.56 0 01-.295.088zm2.701 3.946a.554.554 0 01-.298-1.018l12.443-7.896a.551.551 0 01.829.587.552.552 0 01-.236.346l-12.443 7.901a.548.548 0 01-.295.08z" fill="#363E44"/><path d="M174.503 220.741s48.768.378 86.152.928l-8.154-77.051s-37.123-13.903-78.201-11.262l.203 87.385z" fill="#fff"/><path d="M241.984 140.729l8.054 83.015 69.293 1.572s2.926-27.951-22.257-56.116a67.245 67.245 0 00-20.805-15.64c-8.727-4.242-23.02-10.752-34.285-12.831zm-54.081-8.069l2.7 88.564s-66.503 17.787-66.523-26.569c0-19.021 5.201-33.066 10.442-42.391a36.131 36.131 0 0124.472-17.752c7.703-1.529 17.949-2.758 28.909-1.852z" fill="#629BFF"/><path d="M159.194 177.899a.546.546 0 01-.533-.693l3.003-11.29a.554.554 0 01.675-.392.552.552 0 01.391.675l-3.003 11.292a.555.555 0 01-.533.408zm-26.101 13.58a.556.556 0 01-.506-.771c.063-.142 6.475-14.408 24.842-12.709a.567.567 0 01.386.192.551.551 0 01-.072.79.552.552 0 01-.414.12c-17.549-1.627-23.485 11.49-23.731 12.048a.545.545 0 01-.505.33z" fill="#363E44"/><path d="M256.585 198.967c-3.356-2.192-15.84-13.545-23.193-10.762-7.405 2.801-11.743 10.404-13.264 18.175.017.028.037.058.052.085.521 2.13 1.627 5.236 4.255 7.726 3.003 2.838 5.128 2.155 8.76 4.658 6.166 4.22 6.066 10.489 8.647 9.901 1.766-.406 1.979-4.055 1.306-7.436-.691-3.471-2.598-5.423-2.155-5.796.501-.411 2.167 1.824 4.505 4.412 1.089 1.201 2.047 6.347 4.542 6.149 2.003-.157 2.333-5.756 0-10.061-1.639-3.045-4.772-4.254-4.432-4.79.25-.4 2.105.368 3.504 1.502 2.305 1.877 3.341 7.128 5.636 6.902 2.253-.22 2.458-5.115.576-9.21-1.587-3.454-5.143-4.64-4.725-5.303.295-.468 2.002-.268 5.28 1.189 2.753 1.216 7.283 5.351 8.985 2.673 1.452-2.255-3.218-6.703-8.279-10.014z" fill="#84524D"/><path d="M160.72 183.24a19.316 19.316 0 00-15.637 12.764c-2.252 6.55-2.034 14.749 8.029 21.153 19.942 12.696 74.028-9.18 74.028-9.18l10.147-20.102c-24.84-5.994-52.278-8.014-76.567-4.635z" fill="#84524D"/><path d="M332.418 228.087a10.271 10.271 0 01-3.794 4.318 10.252 10.252 0 01-5.521 1.6h-64.015l28.674-61.284h70.562l-25.906 55.366z" fill="#363E44"/><path d="M217.059 227.854a6.177 6.177 0 001.812 4.372 6.19 6.19 0 004.373 1.809h59.037l2.893-6.181h-68.115z" fill="#363E44"/><path d="M350.568 201.45c-.226 2.297-.601 4.142-4.583 3.754-3.982-.388-10.058-2.868-9.833-5.168.225-2.3 6.67-3.546 10.649-3.156 3.979.39 3.992 2.27 3.767 4.57z" fill="#84524D"/><path d="M333.439 205.942c.225-2.297 6.667-3.546 10.649-3.156 3.982.391 4.005 2.273 3.767 4.57l-14.416-1.414z" fill="#84524D"/><path d="M347.855 207.356c-.225 2.3-.603 4.145-4.583 3.754-3.979-.39-10.058-2.868-9.833-5.168l14.416 1.414z" fill="#84524D"/><path d="M330.724 211.851c.225-2.297 6.669-3.546 10.651-3.156 3.982.391 3.99 2.273 3.754 4.57l-14.405-1.414z" fill="#84524D"/><path d="M345.139 213.265c-.225 2.3-.6 4.142-4.582 3.754-3.982-.387-10.059-2.868-9.833-5.165l14.415 1.411z" fill="#84524D"/><path d="M331.051 217.197c.178-1.827 5.301-2.82 8.465-2.503 3.163.318 3.173 1.807 3.003 3.634l-11.468-1.131z" fill="#84524D"/><path d="M342.509 218.321c-.178 1.827-.478 3.293-3.642 2.983-3.163-.31-8.008-2.28-7.816-4.107l11.458 1.124zM200.991 114.045c1.866-1.382 2.062-4.28.437-6.472-1.624-2.193-4.454-2.849-6.319-1.466-1.866 1.382-2.062 4.28-.437 6.472 1.624 2.192 4.454 2.849 6.319 1.466zm20.501-7.486c-1.394 2.345-.904 5.208 1.091 6.394 1.995 1.187 4.755.251 6.139-2.099 1.384-2.351.906-5.209-1.091-6.395-1.997-1.186-4.75-.245-6.139 2.1z" fill="#84524D"/><path d="M210.48 144.806a8.832 8.832 0 01-8.417-9.225l.818-25.048 17.645.811-.821 25.055a8.832 8.832 0 01-9.225 8.407z" fill="#84524D"/><path d="M213.638 130.74c-14.153.836-14.671-22.797-14.671-22.797l25.08-.849s3.316 22.833-10.409 23.646z" fill="#363E44"/><path d="M205.886 109.868a9.001 9.001 0 00-4.135-17.518 9 9 0 004.135 17.518z" fill="#363E44"/><path d="M223.777 108.909c.4 7.863-4.7 3.726-11.393 4.069-6.692.343-12.443 5.028-12.844-2.835-.4-7.864 4.7-12.356 11.395-12.697 6.695-.34 12.444 3.599 12.842 11.463z" fill="#84524D"/><path d="M223.777 113.279a.834.834 0 01-.1 0 .564.564 0 01-.354-.237.549.549 0 01-.079-.419 16.268 16.268 0 00-.271-6.96.555.555 0 01.809-.598.555.555 0 01.26.318 17.5 17.5 0 01.538 3.503 17.157 17.157 0 01-.25 3.945.552.552 0 01-.553.448zm-23.866 1.126a.545.545 0 01-.332-.112.548.548 0 01-.199-.289 17.366 17.366 0 01-.44-7.43.548.548 0 01.632-.457.553.553 0 01.456.632 16.268 16.268 0 00.413 6.953.552.552 0 01-.53.703zm12.591-.573a.552.552 0 01-.338-1.001c.235-.181.378-.358.381-.476 0-.067-.056-.15-.178-.323a2.474 2.474 0 01-.473-.978 2.373 2.373 0 01.102-1.252.558.558 0 01.489-.369.548.548 0 01.528.311.547.547 0 01.025.421 1.287 1.287 0 00-.063.676c.053.205.152.396.288.558.238.274.374.623.383.986 0 .478-.281.926-.809 1.332a.548.548 0 01-.335.115z" fill="#363E44"/><path d="M210.615 117.313a3.808 3.808 0 01-3.324-1.882.56.56 0 01.011-.636.545.545 0 01.379-.223.548.548 0 01.561.298 2.704 2.704 0 002.588 1.332.555.555 0 01.088 1.101c-.088.005-.188.01-.303.01z" fill="#fff"/><path d="M197.941 106.018s6.48.959 13.2-6.96c0 0 12.478 16.318 22.079-3.361 0 0-5.624 2.483-8.64-1.44-4.8-6.238-16.32-11.279-20.88.251l-5.759 11.51z" fill="#363E44"/><path d="M219.617 106.939h-.027c0 .063-.05.143-.115.143-.059.11-.108.224-.146.343-.085.18-.357.037-.272-.14.055-.12-.348.125-.528.202-.571.251-1.152.481-1.74.691-.273.098-.548.198-.826.285-.33.128-.67.232-1.016.311a7.692 7.692 0 00-1.111 1.411 7.784 7.784 0 002.525.436v-.058c.023-.19 3.229-1.119 3.324-.978a7.84 7.84 0 002.057-2.218 7.718 7.718 0 00-2.125-.428z" fill="#fff"/><path d="M217.25 107.245a6.23 6.23 0 00-2.3 1.526 2.524 2.524 0 001.369 1.845 5.874 5.874 0 002.019-.318 5.592 5.592 0 001.337-.706 2.551 2.551 0 00-.085-2.655 6.053 6.053 0 00-2.34.308z" fill="#363E44"/><path d="M203.722 107.96h.03c.018.06.063.138.126.13.072.103.132.213.18.328.102.171.36 0 .25-.167-.068-.115.36.09.546.15.593.195 1.193.363 1.799.5.283.07.566.143.851.203.342.094.691.162 1.044.205a7.7 7.7 0 011.251 1.294 7.826 7.826 0 01-2.468.683.494.494 0 01-.015-.055c-.042-.187-3.326-.79-3.406-.64a7.807 7.807 0 01-2.272-2.002 7.839 7.839 0 012.084-.629z" fill="#fff"/><path d="M206.107 108.028c.9.242 1.735.681 2.443 1.286a2.533 2.533 0 01-1.176 1.975 5.912 5.912 0 01-2.045-.115 5.537 5.537 0 01-1.396-.566 2.54 2.54 0 01-.183-2.653 6.054 6.054 0 012.357.073z" fill="#363E44"/><path d="M423.325 108.247c22.239-22.239 22.239-58.296 0-80.535-22.239-22.24-58.296-22.24-80.535 0-22.24 22.24-22.24 58.296 0 80.535 22.239 22.24 58.296 22.24 80.535 0z" fill="#fff"/><path d="M383.056 119.826c-28.589 0-51.849-23.258-51.849-51.847 0-28.588 23.26-51.849 51.849-51.849 28.588 0 51.846 23.258 51.846 51.85 0 28.59-23.258 51.846-51.846 51.846zm0-102.592c-27.981 0-50.746 22.775-50.746 50.745s22.775 50.743 50.746 50.743c27.97 0 50.743-22.775 50.743-50.743 0-27.968-22.763-50.745-50.743-50.745z" fill="#639DFF"/><path d="M413.742 92.446a.543.543 0 01-.338-.115l-30.689-23.919a.553.553 0 01-.212-.433V36.242a.549.549 0 01.551-.516.552.552 0 01.552.516V67.71l30.473 23.75a.551.551 0 01-.337.987z" fill="#0D3579"/><path d="M382.47 408.899l.851-3.139a14.725 14.725 0 0110.832-10.478l32.13-7.584s-5.143 29.4-30.861 27.543c.01 0-10.146-1.962-12.952-6.342z" fill="#D3E4FF"/><path d="M416.057 419.583v4.71a32.806 32.806 0 01-56.002 23.197 32.782 32.782 0 01-7.111-10.643 32.778 32.778 0 01-2.496-12.554v-4.71h65.609z" fill="#0D3579"/><path d="M456.431 342.892s5.756 37.223-16.826 41.68c-19.521 3.854-33.301-9.072-33.144-9.718a.034.034 0 000-.02 16.346 16.346 0 018.414-10.651l41.556-21.291zm-61.92 24.194l.055-5.141a23.3 23.3 0 00-11.976-20.61l-45.63-25.365s-4.827 46.951 35.109 55.193c0-.008 16.285 1.381 22.442-4.077zm-14.238 29.495l-.07-.714a15.556 15.556 0 00-11.263-13.407l-26.947-7.606s-2.375 16.491 16.306 22.557c12.18 3.952 21.974-.83 21.974-.83z" fill="#D3E4FF"/><path d="M382.468 418.86a.552.552 0 01-.37-.146.552.552 0 01-.179-.355l-1.909-18.89a11.151 11.151 0 00-8.402-9.688l-18.588-4.598a.552.552 0 11.266-1.071l18.587 4.597a12.261 12.261 0 019.236 10.647l1.909 18.891a.545.545 0 01-.292.544.548.548 0 01-.208.061l-.05.008zm8.912 0h-.035a.55.55 0 01-.518-.586l2.975-48.666a17.574 17.574 0 00-10.529-17.148l-25.335-10.965a.545.545 0 01-.343-.295.552.552 0 01.781-.706l25.335 10.965a18.675 18.675 0 0111.193 18.227l-2.976 48.656a.557.557 0 01-.548.518zm7.711 0a.721.721 0 01-.093 0 .544.544 0 01-.445-.423.537.537 0 01-.005-.215l7.062-41.18a13.38 13.38 0 017.639-9.919l33.701-15.384a.555.555 0 01.614.09.54.54 0 01.141.603.54.54 0 01-.297.308l-33.706 15.379a12.284 12.284 0 00-7.008 9.1l-7.063 41.183a.547.547 0 01-.54.458z" fill="#3E6BB6"/><path d="M374.909 417.266a19.463 19.463 0 00-8.744-13.388l-5.073-3.253-.251 2.923a12.733 12.733 0 0013.698 13.743l.37-.025z" fill="#D3E4FF"/></g><defs><clipPath id="clip0_2_17"><path fill="#fff" d="M0 0h458v458H0z"/></clipPath></defs></svg>