<svg width="234" height="54" fill="none" xmlns="http://www.w3.org/2000/svg"><g clip-path="url(#clip0_2_6)"><path d="M6.08 27a24.55 24.55 0 013.708-12.978 24.659 24.659 0 0110.017-9.078 24.756 24.756 0 0125.92 2.471A27.119 27.119 0 0031.84.42a27.167 27.167 0 00-15.455 1.772 27.066 27.066 0 00-11.928 9.954A26.94 26.94 0 00-.009 27a26.94 26.94 0 004.467 14.854 27.066 27.066 0 0011.928 9.954 27.166 27.166 0 0015.455 1.772 27.118 27.118 0 0013.884-6.995 24.757 24.757 0 01-25.919 2.471A24.66 24.66 0 019.789 39.98 24.55 24.55 0 016.08 27z" fill="url(#paint0_linear_2_6)"/><path d="M31.335 4.406a22.619 22.619 0 00-15.593 6.206 20.72 20.72 0 0121.69-2.07 20.638 20.638 0 018.384 7.595 20.548 20.548 0 010 21.72 20.639 20.639 0 01-8.384 7.596 20.719 20.719 0 01-21.69-2.07 22.683 22.683 0 009.52 5.377 22.733 22.733 0 0010.94.304 22.692 22.692 0 009.805-4.841 22.595 22.595 0 006.388-8.857A22.526 22.526 0 0050.1 14.319a22.639 22.639 0 00-8.146-7.283 22.722 22.722 0 00-10.62-2.63z" fill="url(#paint1_linear_2_6)"/><path d="M27.823 15.521a.961.961 0 00-.893.587.95.95 0 00-.073.367v7.172a3.502 3.502 0 00-2.426 2.482 3.478 3.478 0 00.918 3.343 3.503 3.503 0 003.356.905 3.503 3.503 0 002.483-2.425h9.128a.97.97 0 001.006-.559.961.961 0 00-.6-1.319.968.968 0 00-.406-.034h-9.128a3.487 3.487 0 00-2.406-2.393v-7.171a.951.951 0 00-.592-.882.959.959 0 00-.367-.073zm1.715 11.48a1.705 1.705 0 01-1.06 1.578 1.72 1.72 0 01-1.868-.372 1.708 1.708 0 011.213-2.917 1.72 1.72 0 011.585 1.056c.086.208.13.43.13.655z" fill="url(#paint2_linear_2_6)"/></g><path d="M81.358 23.84h-8.422l-1.354 4.325H66L74.19 5.84h5.946l8.19 22.324h-5.581l-1.387-4.324zm-7.035-4.357h5.648l-2.808-9.419-2.84 9.42zM87.87 11.74h2.477V7.45h5.284v4.29h4.657v4.09h-4.657v6.435c0 .648.132 1.162.397 1.542.286.358.792.537 1.519.537.396 0 .793-.023 1.189-.068a9.304 9.304 0 001.189-.268l.363 3.721c-.528.246-1.178.436-1.948.57-.771.134-1.542.201-2.312.201-1.035 0-1.916-.156-2.643-.47a5.253 5.253 0 01-1.75-1.306 5.772 5.772 0 01-.99-1.945 9.527 9.527 0 01-.298-2.413V15.83H87.87v-4.09zm12.874 0h2.477V7.45h5.284v4.29h4.657v4.09h-4.657v6.435c0 .648.132 1.162.397 1.542.286.358.792.537 1.519.537.396 0 .793-.023 1.189-.068a9.3 9.3 0 001.189-.268l.363 3.721c-.528.246-1.178.436-1.948.57-.771.134-1.542.201-2.312.201-1.035 0-1.916-.156-2.643-.47a5.253 5.253 0 01-1.75-1.306 5.776 5.776 0 01-.991-1.945 9.536 9.536 0 01-.297-2.413V15.83h-2.477v-4.09zm21.758-.335c2.114 0 3.788.637 5.021 1.91 1.233 1.252 1.849 2.995 1.849 5.23 0 .849-.099 1.754-.297 2.715h-9.38c.044 1.005.374 1.821.991 2.447.638.603 1.607.905 2.906.905.793 0 1.619-.067 2.477-.201.881-.157 1.641-.38 2.279-.67l.661 3.452c-.837.424-1.784.748-2.841.972a15.281 15.281 0 01-3.236.335c-1.409 0-2.653-.201-3.732-.603-1.079-.425-1.982-1.006-2.709-1.743a7.258 7.258 0 01-1.651-2.648c-.374-1.028-.562-2.168-.562-3.42 0-1.34.188-2.547.562-3.62.396-1.072.947-1.977 1.651-2.715a7.282 7.282 0 012.61-1.743c1.012-.402 2.146-.603 3.401-.603zm-.165 3.419c-.836 0-1.486.28-1.948.838-.441.536-.661 1.285-.661 2.246h4.69c.044-.179.066-.369.066-.57 0-.715-.187-1.307-.561-1.777-.375-.491-.903-.737-1.586-.737zm9.549 13.341V11.74h5.087v2.146c.506-.894 1.156-1.531 1.948-1.911a6.026 6.026 0 012.576-.57c1.079 0 1.993.235 2.742.704a5.255 5.255 0 011.816 1.81c.485.76.826 1.643 1.024 2.648.22.983.33 2.022.33 3.117v8.48h-5.284v-8.58c0-1.363-.209-2.358-.628-2.983-.418-.648-1.056-.972-1.915-.972-.551 0-1.035.122-1.453.368a3.12 3.12 0 00-.958.905v11.263h-5.285zm34.102 0h-5.054v-2.078a5.664 5.664 0 01-1.981 1.776c-.793.425-1.751.637-2.874.637a5.81 5.81 0 01-2.543-.57 6.535 6.535 0 01-2.08-1.676c-.573-.737-1.024-1.62-1.355-2.648-.33-1.028-.495-2.179-.495-3.452 0-1.43.22-2.693.661-3.788.462-1.095 1.067-2.011 1.816-2.749a7.377 7.377 0 012.675-1.642 9.142 9.142 0 013.237-.57 7.69 7.69 0 011.519.134 7.82 7.82 0 011.189.268V4.5h5.285v23.665zm-7.993-3.788c1.123 0 2.026-.38 2.708-1.14v-7.541c-.484-.18-1.112-.269-1.882-.269-1.321 0-2.312.414-2.973 1.24-.638.827-.958 1.956-.958 3.386 0 1.274.243 2.313.727 3.117.506.805 1.299 1.207 2.378 1.207zm20.328 2.179c-.506.514-1.2.972-2.081 1.374-.858.38-1.805.57-2.84.57-.727 0-1.376-.123-1.949-.369A4.256 4.256 0 01170 27.126a4.96 4.96 0 01-.892-1.475 5.676 5.676 0 01-.297-1.844c0-1.52.462-2.659 1.387-3.419.947-.782 2.279-1.24 3.997-1.374a51.62 51.62 0 012.014-.1c.727-.023 1.365-.045 1.916-.068v-.536c0-1.788-.98-2.681-2.94-2.681-.77 0-1.519.089-2.245.268a8.816 8.816 0 00-1.949.737l-.958-3.72c.771-.447 1.674-.805 2.708-1.073 1.057-.29 2.202-.436 3.435-.436 2.268 0 4.041.603 5.318 1.81 1.277 1.184 1.915 2.972 1.915 5.363v9.587h-5.086v-1.61zm-2.873-1.576c.506 0 .979-.067 1.42-.2a5.33 5.33 0 001.255-.537v-2.447c-.529.045-1.002.1-1.42.168-.419.044-.826.09-1.222.134-1.079.134-1.619.648-1.619 1.542 0 .402.132.726.397.972.286.246.682.368 1.189.368zm11.218 3.185V11.74h5.086v2.146c.506-.894 1.156-1.531 1.949-1.911a6.02 6.02 0 012.576-.57c1.079 0 1.992.235 2.741.704a5.257 5.257 0 011.817 1.81c.484.76.825 1.643 1.023 2.648.221.983.331 2.022.331 3.117v8.48h-5.285v-8.58c0-1.363-.209-2.358-.627-2.983-.419-.648-1.057-.972-1.916-.972-.55 0-1.035.122-1.453.368a3.13 3.13 0 00-.958.905v11.263h-5.284zm26.406-16.76c.836 0 1.651.09 2.444.268.814.179 1.519.425 2.113.738l-.528 3.82a8.871 8.871 0 00-1.519-.468 7.654 7.654 0 00-1.751-.201c-1.409 0-2.466.39-3.17 1.173-.705.782-1.057 1.854-1.057 3.218 0 1.363.352 2.435 1.057 3.217.704.782 1.761 1.174 3.17 1.174a7.66 7.66 0 001.751-.202 8.87 8.87 0 001.519-.469l.528 3.821c-.594.313-1.299.56-2.113.738a11.08 11.08 0 01-2.444.268c-1.366 0-2.599-.201-3.699-.603-1.079-.425-1.993-1.006-2.742-1.743a7.68 7.68 0 01-1.717-2.715c-.397-1.05-.595-2.213-.595-3.486 0-1.274.198-2.436.595-3.486.396-1.05.969-1.945 1.717-2.682.749-.76 1.663-1.34 2.742-1.743 1.1-.425 2.333-.637 3.699-.637zm14.056 0c2.114 0 3.787.637 5.02 1.91 1.234 1.252 1.85 2.995 1.85 5.23 0 .849-.099 1.754-.297 2.715h-9.38c.044 1.005.374 1.821.991 2.447.638.603 1.607.905 2.906.905.793 0 1.618-.067 2.477-.201.881-.157 1.641-.38 2.279-.67l.661 3.452c-.837.424-1.784.748-2.841.972a15.288 15.288 0 01-3.236.335c-1.41 0-2.654-.201-3.733-.603-1.078-.425-1.981-1.006-2.708-1.743a7.258 7.258 0 01-1.651-2.648c-.374-1.028-.562-2.168-.562-3.42 0-1.34.188-2.547.562-3.62.396-1.072.947-1.977 1.651-2.715a7.287 7.287 0 012.609-1.743c1.013-.402 2.147-.603 3.402-.603zm-.165 3.419c-.837 0-1.486.28-1.949.838-.44.536-.66 1.285-.66 2.246h4.69c.044-.179.066-.369.066-.57 0-.715-.187-1.307-.562-1.777-.374-.491-.902-.737-1.585-.737z" fill="#4D4D4D"/><path d="M66.728 44.515h2.524c.553 0 1.037-.115 1.45-.347a2.53 2.53 0 00.972-.978c.233-.421.35-.91.35-1.465v-.012c0-.56-.117-1.048-.35-1.465a2.471 2.471 0 00-.971-.978c-.414-.232-.898-.347-1.451-.347h-2.524v1.215h2.168c.523 0 .93.137 1.22.412.29.274.434.663.434 1.169v.011c0 .502-.145.892-.434 1.17-.29.274-.697.411-1.22.411h-2.168v1.204zM66 47.277h1.457v-8.354H66v8.354zm11.798.127c.617 0 1.146-.131 1.586-.394a2.616 2.616 0 001.022-1.134c.241-.49.361-1.077.361-1.76v-.012c0-.68-.12-1.264-.36-1.754a2.614 2.614 0 00-1.028-1.129c-.44-.262-.968-.394-1.581-.394-.614 0-1.142.132-1.586.394-.44.263-.781.64-1.022 1.135-.241.49-.362 1.073-.362 1.748v.012c0 .683.119 1.27.356 1.76.241.49.584.868 1.028 1.135.444.262.972.393 1.586.393zm0-1.17c-.328 0-.606-.082-.836-.248-.225-.166-.398-.407-.519-.724-.12-.316-.18-.697-.18-1.14v-.012c0-.448.06-.828.18-1.14.12-.317.296-.558.525-.724.23-.17.506-.255.83-.255.324 0 .598.085.824.255.23.166.405.407.525.723.12.313.18.693.18 1.141v.012c0 .443-.06.824-.18 1.14a1.57 1.57 0 01-.525.724c-.226.166-.5.249-.824.249zm7.129 1.043h1.451l1.197-4.585h.096l1.202 4.585h1.468l1.677-6.328h-1.395l-1.022 4.759H89.5l-1.191-4.76H86.97l-1.186 4.76h-.101l-1.022-4.76H83.25l1.677 6.329zm12.515.127c.418 0 .785-.054 1.1-.162.317-.112.584-.257.802-.434.223-.181.398-.376.526-.585.131-.212.222-.42.271-.625l.011-.052H98.82l-.017.04a1.076 1.076 0 01-.238.307 1.513 1.513 0 01-.445.272c-.181.074-.398.11-.65.11-.323 0-.604-.073-.84-.22a1.484 1.484 0 01-.543-.637c-.128-.277-.192-.611-.192-1.001v-.58c0-.404.064-.746.192-1.024.132-.282.309-.494.53-.637.227-.146.484-.22.774-.22.29 0 .544.07.762.209.222.139.395.347.52.625.124.278.186.627.186 1.048v.573l.666-.903h-4.324v.967h5.013V44c0-.637-.115-1.193-.344-1.667a2.591 2.591 0 00-.983-1.106c-.421-.266-.926-.4-1.513-.4-.583 0-1.091.137-1.524.411-.433.27-.768.653-1.005 1.147-.233.494-.35 1.073-.35 1.737v.005c0 .672.119 1.253.356 1.743.237.49.574.868 1.01 1.135.44.266.968.4 1.581.4zm5.994-.127h1.406V43.6c0-.3.064-.561.192-.781.128-.224.309-.396.542-.515.233-.12.506-.18.819-.18.124 0 .242.008.355.023.117.012.232.031.345.058v-1.29a1.639 1.639 0 00-.26-.047 2.07 2.07 0 00-.31-.023c-.407 0-.748.094-1.022.283a1.47 1.47 0 00-.565.794h-.096v-.973h-1.406v6.328zm9.111.127c.418 0 .785-.054 1.101-.162.316-.112.583-.257.802-.434.222-.181.397-.376.525-.585.131-.212.222-.42.271-.625l.011-.052h-1.332l-.017.04a1.071 1.071 0 01-.237.307 1.52 1.52 0 01-.446.272c-.181.074-.397.11-.65.11-.323 0-.604-.073-.841-.22a1.486 1.486 0 01-.542-.637c-.128-.277-.192-.611-.192-1.001v-.58c0-.404.064-.746.192-1.024.132-.282.309-.494.531-.637.226-.146.484-.22.773-.22.29 0 .544.07.763.209.222.139.395.347.519.625s.186.627.186 1.048v.573l.666-.903h-4.324v.967h5.013V44c0-.637-.115-1.193-.344-1.667a2.592 2.592 0 00-.983-1.106c-.421-.266-.925-.4-1.513-.4-.583 0-1.091.137-1.524.411-.433.27-.768.653-1.005 1.147-.233.494-.35 1.073-.35 1.737v.005c0 .672.119 1.253.356 1.743.237.49.574.868 1.01 1.135.441.266.968.4 1.581.4zm8.219-.023c.437 0 .815-.096 1.135-.29.323-.192.57-.46.739-.804h.102v.99h1.4V38.5h-1.4v3.456h-.102a1.829 1.829 0 00-.739-.81 2.15 2.15 0 00-1.135-.301c-.519 0-.969.133-1.349.4-.377.262-.668.638-.875 1.128-.204.486-.305 1.065-.305 1.737v.012c0 .663.103 1.24.31 1.73.207.49.501.87.881 1.135.38.263.826.394 1.338.394zm.44-1.216c-.32 0-.594-.08-.824-.243a1.584 1.584 0 01-.531-.706c-.124-.305-.186-.67-.186-1.094v-.012c0-.425.062-.79.186-1.094.125-.309.301-.544.531-.706.233-.166.508-.25.824-.25.32 0 .595.084.824.25.234.165.413.4.537.706.128.305.192.67.192 1.094v.012c0 .42-.064.785-.192 1.094a1.56 1.56 0 01-.537.706 1.39 1.39 0 01-.824.243zm14.857 1.216c.516 0 .962-.131 1.338-.394.38-.266.674-.644.881-1.134.21-.49.316-1.068.316-1.731v-.012c0-.672-.104-1.25-.311-1.737-.207-.49-.5-.866-.88-1.129-.377-.266-.825-.4-1.344-.4-.425 0-.805.101-1.14.302-.332.2-.576.47-.734.81h-.096V38.5h-1.406v8.777h1.406v-.99h.096c.169.343.416.612.739.805.324.193.702.29 1.135.29zm-.44-1.216c-.32 0-.597-.08-.83-.243a1.607 1.607 0 01-.536-.706c-.125-.309-.187-.674-.187-1.094v-.012c0-.425.062-.79.187-1.094.127-.305.308-.54.541-.706a1.39 1.39 0 01.825-.25c.32 0 .594.084.824.25.23.162.406.397.531.706.124.305.186.67.186 1.094v.012c0 .424-.062.789-.186 1.094-.125.305-.301.54-.531.706-.23.162-.504.243-.824.243zm6.61 3.335c.455 0 .843-.064 1.162-.191a1.87 1.87 0 00.825-.648c.229-.305.434-.72.615-1.245l2.213-6.467h-1.479l-1.626 5.604.373-.66h-.486l.384.66-1.626-5.604h-1.535l2.207 6.334-.073.29c-.076.285-.202.491-.379.619-.173.13-.404.196-.694.196-.072 0-.145-.002-.22-.005a1.44 1.44 0 01-.198-.012v1.106a5.57 5.57 0 00.537.023zm14.551-2.223h1.372l1.649-5.98h.084l1.66 5.98h1.366l2.179-8.354h-1.501l-1.395 6.27h-.079l-1.626-6.27h-1.292l-1.609 6.27h-.079l-1.4-6.27H154.6l2.184 8.354zm13.52.127c.617 0 1.146-.131 1.587-.394a2.614 2.614 0 001.021-1.134c.241-.49.362-1.077.362-1.76v-.012c0-.68-.121-1.264-.362-1.754a2.609 2.609 0 00-1.027-1.129c-.44-.262-.967-.394-1.581-.394-.613 0-1.142.132-1.586.394-.44.263-.781.64-1.022 1.135-.241.49-.361 1.073-.361 1.748v.012c0 .683.118 1.27.355 1.76.241.49.584.868 1.028 1.135.444.262.973.393 1.586.393zm0-1.17c-.327 0-.606-.082-.835-.248-.226-.166-.399-.407-.52-.724-.12-.316-.18-.697-.18-1.14v-.012c0-.448.06-.828.18-1.14.121-.317.296-.558.525-.724.23-.17.507-.255.83-.255.324 0 .599.085.824.255.23.166.405.407.525.723.121.313.181.693.181 1.141v.012c0 .443-.06.824-.181 1.14a1.57 1.57 0 01-.525.724 1.35 1.35 0 01-.824.249zm6.198 1.043h1.406V43.6c0-.3.064-.561.192-.781.128-.224.308-.396.542-.515.233-.12.506-.18.818-.18.124 0 .243.008.356.023.116.012.231.031.344.058v-1.29a1.618 1.618 0 00-.26-.047 2.06 2.06 0 00-.31-.023c-.407 0-.747.094-1.022.283a1.46 1.46 0 00-.564.794h-.096v-.973h-1.406v6.328zm6.672 0h1.406V38.5h-1.406v8.777zm3.878 0h1.688l-2.721-3.752-1.044.88 2.077 2.872zm-2.591-2.096l.79-.828.644-.515 2.681-2.89h-1.625l-2.276 2.6h-.265l.051 1.633zm8.055-.666h2.523c.554 0 1.037-.115 1.451-.347a2.52 2.52 0 00.971-.978c.234-.421.35-.91.35-1.465v-.012c0-.56-.116-1.048-.35-1.465a2.47 2.47 0 00-.971-.978c-.414-.232-.897-.347-1.451-.347h-2.523v1.215h2.168c.523 0 .929.137 1.219.412.29.274.435.663.435 1.169v.011c0 .502-.145.892-.435 1.17-.29.274-.696.411-1.219.411h-2.168v1.204zm-.728 2.762h1.456v-8.354h-1.456v8.354zm11.798.127c.617 0 1.146-.131 1.586-.394a2.616 2.616 0 001.022-1.134c.241-.49.361-1.077.361-1.76v-.012c0-.68-.12-1.264-.361-1.754a2.617 2.617 0 00-1.028-1.129c-.44-.262-.967-.394-1.58-.394-.614 0-1.143.132-1.587.394-.44.263-.781.64-1.022 1.135-.24.49-.361 1.073-.361 1.748v.012c0 .683.119 1.27.356 1.76.241.49.583.868 1.027 1.135.444.262.973.393 1.587.393zm0-1.17c-.328 0-.606-.082-.836-.248-.226-.166-.399-.407-.519-.724-.121-.316-.181-.697-.181-1.14v-.012c0-.448.06-.828.181-1.14.12-.317.295-.558.525-.724.229-.17.506-.255.83-.255.323 0 .598.085.824.255.229.166.404.407.525.723.12.313.181.693.181 1.141v.012c0 .443-.061.824-.181 1.14a1.585 1.585 0 01-.525.724 1.354 1.354 0 01-.824.249zm6.197 1.043h1.406V43.6c0-.3.064-.561.192-.781.128-.224.309-.396.542-.515.233-.12.506-.18.819-.18.124 0 .242.008.355.023.117.012.232.031.345.058v-1.29a1.639 1.639 0 00-.26-.047 2.074 2.074 0 00-.311-.023c-.406 0-.747.094-1.021.283-.271.19-.46.454-.565.794h-.096v-.973h-1.406v6.328zm9.326.029a4.184 4.184 0 00.728-.064v-1.111a6.828 6.828 0 00-.226.023 4.344 4.344 0 01-.248.005c-.29 0-.501-.07-.633-.214-.128-.146-.192-.376-.192-.689v-3.19h1.299V40.95h-1.299v-1.552h-1.428v1.552h-.96v1.117h.96v3.532c0 .606.156 1.042.469 1.308.312.267.822.4 1.53.4zm5.633.075c.274 0 .527-.038.756-.116a1.887 1.887 0 001.05-.857h.096v.869h1.389v-4.325c0-.444-.096-.824-.288-1.14a1.819 1.819 0 00-.841-.73c-.369-.17-.821-.255-1.355-.255a3.51 3.51 0 00-1.287.22 2.21 2.21 0 00-.898.62 1.75 1.75 0 00-.406.932l-.006.052h1.327l.005-.023a.851.851 0 01.413-.48c.203-.116.464-.174.784-.174.384 0 .674.085.87.254.195.166.293.408.293.724v2.003c0 .251-.064.477-.192.678a1.365 1.365 0 01-.525.469 1.61 1.61 0 01-.756.173c-.313 0-.57-.075-.774-.225a.747.747 0 01-.299-.632v-.011c0-.263.094-.467.282-.614.189-.146.48-.231.875-.255l2.084-.138v-.95l-2.281.145c-.753.042-1.332.226-1.739.55-.403.324-.604.768-.604 1.331v.012c0 .386.087.722.26 1.007.177.282.417.5.722.655a2.31 2.31 0 001.045.231zm6.852-.104H233V38.5h-1.406v8.777z" fill="#4C4C4C" fill-opacity=".36"/><defs><linearGradient id="paint0_linear_2_6" x1="22.858" y1="-.001" x2="22.858" y2="54.001" gradientUnits="userSpaceOnUse"><stop stop-color="#629BFF"/><stop offset="1" stop-color="#8BDCFF"/></linearGradient><linearGradient id="paint1_linear_2_6" x1="34.874" y1="4.406" x2="34.874" y2="49.589" gradientUnits="userSpaceOnUse"><stop stop-color="#629BFF"/><stop offset="1" stop-color="#8BDCFF"/></linearGradient><linearGradient id="paint2_linear_2_6" x1="32.864" y1="15.521" x2="32.864" y2="30.49" gradientUnits="userSpaceOnUse"><stop stop-color="#629BFF"/><stop offset="1" stop-color="#8BDCFF"/></linearGradient><clipPath id="clip0_2_6"><path fill="#fff" d="M0 0h54v54H0z"/></clipPath></defs></svg>