<svg width="458" height="458" viewBox="0 0 458 458" fill="none" xmlns="http://www.w3.org/2000/svg">
<g clip-path="url(#clip0_2_17)">
<path d="M229 458C355.473 458 458 355.473 458 229C458 102.527 355.473 0 229 0C102.527 0 0 102.527 0 229C0 355.473 102.527 458 229 458Z" fill="#3D77D9"/>
<path d="M88.5216 93.6548H12.5137C12.5137 93.6548 3.62145 117.236 5.25574 125.137C8.30407 139.803 41.4477 161.176 41.4477 176.067C41.4477 190.958 8.31157 212.327 5.25574 226.998C3.62145 234.886 12.5137 258.467 12.5137 258.467H88.5216C88.5216 258.467 97.4038 234.886 95.762 226.998C92.7137 212.327 59.565 190.958 59.565 176.062C59.565 161.166 92.7137 139.798 95.762 125.137C97.4038 117.236 88.5216 93.6548 88.5216 93.6548Z" fill="#F7F1EB"/>
<path d="M53.1781 176.856C53.1781 168.046 68.7926 156.458 75.8678 146.61H26.6366C34.0547 156.476 50.9356 168.109 50.9356 176.856C50.9356 187.9 52.5974 230.995 39.1728 241.676C34.5452 245.353 17.3089 254.318 17.3089 254.318H86.2692C86.2692 254.318 81.4139 250.649 68.5173 244.807C51.784 237.216 53.1781 187.9 53.1781 176.856Z" fill="#639DFF"/>
<path d="M93.9676 259.033H17.9496C17.8374 259.033 17.728 258.998 17.6358 258.934C17.5437 258.87 17.4733 258.78 17.434 258.675C17.0686 257.706 8.51179 234.854 10.1761 226.89C11.6327 219.882 19.5213 211.678 27.8729 202.997C36.9604 193.549 46.3581 183.781 46.3581 176.075C46.3581 168.369 36.9604 158.601 27.8729 149.153C19.5213 140.458 11.6252 132.257 10.1686 125.244C8.51179 117.283 17.0686 94.4306 17.4265 93.4595C17.4662 93.3532 17.5378 93.2618 17.6314 93.1978C17.725 93.1337 17.8362 93.1001 17.9496 93.1016H93.9676C94.0797 93.102 94.189 93.1365 94.2811 93.2004C94.3731 93.2643 94.4436 93.3546 94.4832 93.4595C94.8486 94.4281 103.403 117.281 101.741 125.244C100.282 132.252 92.3934 140.458 84.0418 149.14C74.9618 158.588 65.5716 168.356 65.5716 176.062C65.5716 183.768 74.9669 193.536 84.0543 202.984C92.4059 211.666 100.295 219.865 101.754 226.878C103.408 234.841 94.8536 257.694 94.4957 258.662C94.4575 258.771 94.386 258.866 94.2912 258.932C94.1965 258.999 94.0833 259.034 93.9676 259.033ZM18.3325 257.929H93.5822C94.6809 254.948 102.149 234.243 100.667 227.115C99.2734 220.413 91.1295 211.949 83.2534 203.76C74.0158 194.157 64.4629 184.226 64.4629 176.075C64.4629 167.923 74.0158 157.992 83.2534 148.387C91.1295 140.201 99.2709 131.734 100.667 125.031C102.149 117.904 94.6809 97.1986 93.5822 94.2203H18.3325C17.2363 97.1861 9.76066 117.891 11.2473 125.019C12.6413 131.721 20.7852 140.188 28.6613 148.374C37.8989 157.98 47.4543 167.911 47.4543 176.062C47.4543 184.214 37.8989 194.144 28.6613 203.747C20.7852 211.936 12.6438 220.401 11.2473 227.103C9.76066 234.231 17.2363 254.936 18.3325 257.916V257.929Z" fill="white"/>
<path d="M85.1329 246.241C85.0804 246.241 85.0281 246.234 84.9778 246.219C84.9082 246.199 84.8433 246.165 84.7868 246.12C84.7302 246.075 84.6832 246.019 84.6483 245.955C84.6134 245.892 84.5914 245.822 84.5835 245.75C84.5757 245.678 84.582 245.605 84.6023 245.536C87.2152 236.616 88.2488 230.244 87.6056 227.103C86.5395 221.975 81.4814 215.891 77.1968 211.166C77.0972 211.057 77.0447 210.914 77.0508 210.767C77.0569 210.62 77.1211 210.482 77.2293 210.382C77.3375 210.283 77.4808 210.23 77.6277 210.236C77.7746 210.242 77.9131 210.307 78.0127 210.415C82.6652 215.543 87.5731 221.509 88.6868 226.868C89.3876 230.231 88.3715 236.613 85.671 245.836C85.6389 245.954 85.5686 246.057 85.4712 246.131C85.3738 246.204 85.2549 246.243 85.1329 246.241Z" fill="white"/>
<path d="M81.8393 136.935C81.7357 136.934 81.6344 136.904 81.5469 136.849C81.4594 136.793 81.3892 136.714 81.3443 136.621C81.2995 136.528 81.2817 136.423 81.2931 136.32C81.3045 136.218 81.3446 136.12 81.4089 136.039C84.9452 131.621 86.9699 128.03 87.5906 125.027C88.3139 121.55 86.995 114.232 83.774 103.863C83.7526 103.794 83.7451 103.721 83.7518 103.649C83.7585 103.577 83.7794 103.507 83.8132 103.443C83.847 103.379 83.8931 103.322 83.9489 103.276C84.0046 103.23 84.0689 103.195 84.1381 103.174C84.2073 103.153 84.28 103.145 84.3521 103.152C84.4242 103.158 84.4942 103.179 84.5583 103.213C84.6223 103.247 84.679 103.293 84.7252 103.349C84.7715 103.405 84.8062 103.469 84.8276 103.538C87.1126 110.891 89.6328 120.629 88.6718 125.252C88.0036 128.468 85.9688 132.117 82.2698 136.734C82.2179 136.798 82.1522 136.849 82.0776 136.884C82.003 136.919 81.9216 136.936 81.8393 136.935Z" fill="white"/>
<path d="M95.9047 256.808H5.20568V267.777H95.9047V256.808Z" fill="#0D3579"/>
<path d="M95.9047 84.7125H5.20568V95.682H95.9047V84.7125Z" fill="#0D3579"/>
<path d="M104.114 251.697L456.809 251.697L456.809 1.59673L104.114 1.59673L104.114 251.697Z" fill="#285A94"/>
<path d="M445.742 219.197V12.6638L115.176 12.6638V219.197L445.742 219.197Z" fill="#6CABF4"/>
<path d="M243.333 256.998H253.777C253.777 260.76 255.271 264.367 257.931 267.027C260.591 269.687 264.199 271.181 267.96 271.181H292.965C296.726 271.18 300.333 269.686 302.992 267.026C305.651 264.366 307.145 260.759 307.145 256.998H317.597L328.041 312.489V317.129H232.892V312.489L243.333 256.998Z" fill="#D3E4FF"/>
<path d="M328.026 323.481H232.892C232.752 323.471 232.621 323.409 232.525 323.306C232.429 323.204 232.376 323.069 232.376 322.929C232.376 322.789 232.429 322.654 232.525 322.551C232.621 322.449 232.752 322.386 232.892 322.377H328.026C328.101 322.372 328.177 322.382 328.248 322.408C328.32 322.433 328.385 322.473 328.441 322.525C328.496 322.576 328.54 322.639 328.57 322.709C328.6 322.778 328.616 322.853 328.616 322.929C328.616 323.005 328.6 323.079 328.57 323.149C328.54 323.218 328.496 323.281 328.441 323.333C328.385 323.385 328.32 323.424 328.248 323.45C328.177 323.475 328.101 323.486 328.026 323.481Z" fill="#D3E4FF"/>
<path d="M153.705 148.385H136.824V194.67H153.705V148.385Z" fill="#639DFF"/>
<path d="M181.561 139.164H164.68V194.67H181.561V139.164Z" fill="#639DFF"/>
<path d="M209.416 105.162H192.535V194.668H209.416V105.162Z" fill="#8BDCFF"/>
<path d="M237.274 119.198H220.393V194.667H237.274V119.198Z" fill="#8BDCFF"/>
<path d="M265.169 82.1672H248.289V194.668H265.169V82.1672Z" fill="#8BDCFF"/>
<path d="M293.025 104.399H276.144V194.668H293.025V104.399Z" fill="#8BDCFF"/>
<path d="M320.883 136.617H304.002V194.67H320.883V136.617Z" fill="#8BDCFF"/>
<path d="M348.738 115.886H331.857V194.667H348.738V115.886Z" fill="#8BDCFF"/>
<path d="M376.614 128.34H359.733V194.67H376.614V128.34Z" fill="#8BDCFF"/>
<path d="M404.472 96.0223H387.591V194.67H404.472V96.0223Z" fill="#8BDCFF"/>
<path d="M432.367 148.385H415.486V194.67H432.367V148.385Z" fill="#8BDCFF"/>
<path d="M140.981 456.929H265.044V272.923H140.981L140.981 456.929Z" fill="#3462B1"/>
<path d="M1.06115 456.929H125.124L125.124 272.923H1.06115L1.06115 456.929Z" fill="#3462B1"/>
<path d="M140.864 441.57H257.814V268.115H140.864V441.57Z" fill="white"/>
<path d="M8.96979 441.57H125.92L125.92 268.115H8.96979L8.96979 441.57Z" fill="white"/>
<path d="M154.784 312.479C159.343 312.479 163.038 308.783 163.038 304.225C163.038 299.666 159.343 295.971 154.784 295.971C150.225 295.971 146.53 299.666 146.53 304.225C146.53 308.783 150.225 312.479 154.784 312.479Z" fill="#639DFF"/>
<path d="M154.784 344.151C159.343 344.151 163.038 340.455 163.038 335.897C163.038 331.338 159.343 327.643 154.784 327.643C150.225 327.643 146.53 331.338 146.53 335.897C146.53 340.455 150.225 344.151 154.784 344.151Z" fill="#639DFF"/>
<path d="M154.784 375.82C159.343 375.82 163.038 372.125 163.038 367.566C163.038 363.008 159.343 359.312 154.784 359.312C150.225 359.312 146.53 363.008 146.53 367.566C146.53 372.125 150.225 375.82 154.784 375.82Z" fill="#639DFF"/>
<path d="M160.621 405.072C163.845 401.849 163.845 396.623 160.621 393.399C157.398 390.176 152.172 390.176 148.949 393.399C145.725 396.623 145.725 401.849 148.949 405.072C152.172 408.296 157.398 408.296 160.621 405.072Z" fill="#639DFF"/>
<path d="M112.175 312.479C116.734 312.479 120.429 308.783 120.429 304.225C120.429 299.666 116.734 295.971 112.175 295.971C107.616 295.971 103.921 299.666 103.921 304.225C103.921 308.783 107.616 312.479 112.175 312.479Z" fill="#639DFF"/>
<path d="M112.175 344.151C116.734 344.151 120.429 340.455 120.429 335.897C120.429 331.338 116.734 327.643 112.175 327.643C107.616 327.643 103.921 331.338 103.921 335.897C103.921 340.455 107.616 344.151 112.175 344.151Z" fill="#639DFF"/>
<path d="M112.175 375.82C116.734 375.82 120.429 372.125 120.429 367.566C120.429 363.008 116.734 359.312 112.175 359.312C107.616 359.312 103.921 363.008 103.921 367.566C103.921 372.125 107.616 375.82 112.175 375.82Z" fill="#639DFF"/>
<path d="M112.956 407.463C117.492 407.014 120.806 402.973 120.357 398.437C119.908 393.9 115.867 390.586 111.33 391.035C106.794 391.484 103.48 395.525 103.929 400.062C104.378 404.598 108.419 407.912 112.956 407.463Z" fill="#639DFF"/>
<path d="M110.696 296.106C111.745 293.086 113.381 290.304 115.51 287.92C117.639 285.536 120.219 283.596 123.101 282.212C125.982 280.829 129.109 280.03 132.301 279.86C135.493 279.69 138.687 280.153 141.699 281.223C144.712 282.292 147.483 283.947 149.853 286.092C152.223 288.237 154.145 290.83 155.509 293.721C156.873 296.612 157.651 299.744 157.8 302.937C157.948 306.13 157.463 309.321 156.373 312.326C155.85 312.429 155.317 312.481 154.784 312.481C154.084 312.481 153.387 312.392 152.709 312.216C154.037 309.06 154.564 305.625 154.244 302.216C153.923 298.807 152.765 295.53 150.872 292.677C148.98 289.824 146.411 287.483 143.395 285.862C140.379 284.241 137.009 283.391 133.585 283.387C130.161 283.384 126.79 284.226 123.77 285.84C120.75 287.454 118.177 289.79 116.278 292.639C114.378 295.488 113.213 298.762 112.885 302.17C112.557 305.578 113.077 309.014 114.397 312.173C113.674 312.377 112.926 312.48 112.175 312.481C111.702 312.48 111.23 312.439 110.763 312.359C108.868 307.111 108.844 301.369 110.696 296.106Z" fill="#8BDCFF"/>
<path d="M110.696 327.775C111.745 324.756 113.381 321.974 115.51 319.59C117.639 317.205 120.219 315.265 123.101 313.882C125.982 312.499 129.109 311.699 132.301 311.529C135.493 311.359 138.687 311.823 141.699 312.892C144.712 313.962 147.483 315.617 149.853 317.762C152.223 319.907 154.145 322.499 155.509 325.39C156.873 328.281 157.651 331.413 157.8 334.607C157.948 337.8 157.463 340.991 156.373 343.995C155.85 344.098 155.317 344.15 154.784 344.151C154.084 344.151 153.387 344.062 152.709 343.885C154.037 340.729 154.564 337.294 154.244 333.885C153.923 330.476 152.765 327.2 150.872 324.346C148.98 321.493 146.411 319.152 143.395 317.531C140.379 315.911 137.009 315.061 133.585 315.057C130.161 315.053 126.79 315.896 123.77 317.51C120.75 319.124 118.177 321.459 116.278 324.308C114.378 327.157 113.213 330.431 112.885 333.839C112.557 337.248 113.077 340.684 114.397 343.843C113.674 344.046 112.926 344.15 112.175 344.151C111.702 344.149 111.23 344.108 110.763 344.028C108.868 338.78 108.844 333.039 110.696 327.775Z" fill="#8BDCFF"/>
<path d="M110.696 359.445C111.736 356.414 113.366 353.619 115.493 351.222C117.62 348.825 120.201 346.873 123.087 345.481C125.973 344.088 129.107 343.281 132.307 343.107C135.507 342.933 138.709 343.396 141.729 344.468C144.749 345.54 147.527 347.2 149.901 349.353C152.275 351.505 154.199 354.107 155.56 357.008C156.922 359.909 157.695 363.051 157.835 366.253C157.974 369.454 157.478 372.652 156.373 375.66C155.85 375.763 155.318 375.815 154.784 375.815C154.084 375.815 153.387 375.726 152.709 375.55C154.037 372.394 154.564 368.959 154.243 365.55C153.922 362.141 152.764 358.864 150.871 356.011C148.978 353.158 146.41 350.817 143.393 349.197C140.377 347.576 137.007 346.726 133.583 346.723C130.16 346.719 126.788 347.562 123.768 349.176C120.749 350.79 118.175 353.126 116.276 355.975C114.377 358.824 113.212 362.098 112.884 365.507C112.557 368.915 113.076 372.351 114.397 375.51C113.674 375.713 112.926 375.815 112.175 375.815C111.702 375.814 111.23 375.773 110.763 375.693C108.868 370.445 108.844 364.703 110.696 359.44V359.445Z" fill="#8BDCFF"/>
<path d="M110.696 391.114C111.745 388.095 113.381 385.313 115.51 382.929C117.639 380.544 120.219 378.605 123.101 377.221C125.982 375.838 129.109 375.038 132.301 374.868C135.493 374.698 138.687 375.162 141.699 376.231C144.712 377.301 147.483 378.956 149.853 381.101C152.223 383.246 154.145 385.839 155.509 388.729C156.873 391.62 157.651 394.753 157.8 397.946C157.948 401.139 157.463 404.33 156.373 407.335C155.159 407.573 153.907 407.536 152.709 407.227C154.037 404.071 154.564 400.636 154.244 397.227C153.923 393.818 152.765 390.541 150.872 387.688C148.98 384.835 146.411 382.494 143.395 380.873C140.379 379.252 137.009 378.402 133.585 378.399C130.161 378.395 126.79 379.237 123.77 380.851C120.75 382.465 118.177 384.801 116.278 387.65C114.378 390.499 113.213 393.773 112.885 397.181C112.557 400.589 113.077 404.026 114.397 407.184C113.674 407.387 112.926 407.49 112.175 407.49C111.702 407.489 111.23 407.448 110.763 407.367C108.868 402.119 108.844 396.378 110.696 391.114Z" fill="#8BDCFF"/>
<path d="M41.0173 335.922H51.5438V325.395H41.0173V335.922Z" fill="#D87355"/>
<path d="M19.9468 335.922H30.4733V325.395H19.9468V335.922Z" fill="#639DFF"/>
<path d="M83.1583 356.992H93.6848V346.466H83.1583V356.992Z" fill="#639DFF"/>
<path d="M62.0878 356.992H72.6143V346.466H62.0878V356.992Z" fill="#D87355"/>
<path d="M41.0173 356.992H51.5438V346.466H41.0173V356.992Z" fill="#639DFF"/>
<path d="M19.9468 356.992H30.4733V346.466H19.9468V356.992Z" fill="#639DFF"/>
<path d="M83.1583 378.06H93.6848V367.534H83.1583V378.06Z" fill="#D87355"/>
<path d="M62.0878 378.06H72.6143V367.534H62.0878V378.06Z" fill="#639DFF"/>
<path d="M41.0173 378.06H51.5438V367.534H41.0173V378.06Z" fill="#639DFF"/>
<path d="M19.9468 378.06H30.4733V367.534H19.9468V378.06Z" fill="#D87355"/>
<path d="M83.1583 399.131H93.6848V388.604H83.1583V399.131Z" fill="#639DFF"/>
<path d="M62.0878 399.131H72.6143V388.604H62.0878V399.131Z" fill="#639DFF"/>
<path d="M41.0173 399.131H51.5438V388.604H41.0173V399.131Z" fill="#D87355"/>
<path d="M19.9468 399.131H30.4733V388.604H19.9468V399.131Z" fill="#F7F1EB"/>
<path d="M83.1583 420.201H93.6848V409.675H83.1583V420.201Z" fill="#639DFF"/>
<path d="M62.0878 420.201H72.6143V409.675H62.0878V420.201Z" fill="#D87355"/>
<path d="M41.0173 420.201H51.5438V409.675H41.0173V420.201Z" fill="#639DFF"/>
<path d="M19.9468 420.201H30.4733V409.675H19.9468V420.201Z" fill="#639DFF"/>
<path d="M41.0198 304.225H93.6848V286.102H41.0198V304.225Z" fill="#F7F1EB"/>
<path d="M287.739 214.594H166.577V267.715H287.739V214.594Z" fill="#8B865C"/>
<path d="M269.657 316.928C269.642 318.107 269.369 360.111 269.369 360.111L292.895 358.997L306.094 316.928H269.657Z" fill="#84524D"/>
<path d="M267.577 356.151L295.005 355.793L310.234 405.12C310.234 405.12 268.353 418.675 268.26 417.791C268.168 416.908 267.577 356.151 267.577 356.151Z" fill="#D3E4FF"/>
<path d="M287.178 370.565H276.094C276.018 370.57 275.942 370.559 275.871 370.534C275.8 370.508 275.734 370.468 275.679 370.417C275.624 370.365 275.58 370.302 275.549 370.233C275.519 370.163 275.504 370.088 275.504 370.013C275.504 369.937 275.519 369.862 275.549 369.792C275.58 369.723 275.624 369.66 275.679 369.609C275.734 369.557 275.8 369.517 275.871 369.492C275.942 369.466 276.018 369.456 276.094 369.461H287.178C287.254 369.456 287.33 369.466 287.401 369.492C287.473 369.517 287.538 369.557 287.593 369.609C287.649 369.66 287.693 369.723 287.723 369.792C287.753 369.862 287.769 369.937 287.769 370.013C287.769 370.088 287.753 370.163 287.723 370.233C287.693 370.302 287.649 370.365 287.593 370.417C287.538 370.468 287.473 370.508 287.401 370.534C287.33 370.559 287.254 370.57 287.178 370.565Z" fill="#363E44"/>
<path d="M287.063 377.482H276.099C276.023 377.487 275.948 377.477 275.876 377.451C275.805 377.426 275.739 377.386 275.684 377.334C275.629 377.283 275.585 377.22 275.554 377.15C275.524 377.081 275.509 377.006 275.509 376.93C275.509 376.854 275.524 376.78 275.554 376.71C275.585 376.641 275.629 376.578 275.684 376.526C275.739 376.474 275.805 376.435 275.876 376.409C275.948 376.384 276.023 376.373 276.099 376.378H287.063C287.203 376.388 287.334 376.45 287.43 376.553C287.526 376.655 287.579 376.79 287.579 376.93C287.579 377.07 287.526 377.206 287.43 377.308C287.334 377.41 287.203 377.473 287.063 377.482Z" fill="#363E44"/>
<path d="M264.942 324.104H308.104L320.437 261.458C321.164 257.767 321.094 253.963 320.231 250.302C319.368 246.64 317.732 243.206 315.433 240.228C313.134 237.251 310.225 234.799 306.901 233.037C303.578 231.275 299.916 230.244 296.161 230.014L272.58 228.565L264.942 324.104Z" fill="#8B865C"/>
<path d="M134.98 241.684L164.605 270.28L189.717 251.52L165.526 218.171L134.98 241.684Z" fill="#84524D"/>
<path d="M159.194 266.013L174.3 300.385L216.204 272.983L186.854 245.723L159.194 266.013Z" fill="#D3E4FF"/>
<path d="M134.98 248.106L171.86 221.67L149.743 187.58C147.644 184.347 144.888 181.591 141.655 179.493C138.421 177.395 134.782 176 130.974 175.4C127.167 174.8 123.275 175.008 119.553 176.01C115.831 177.013 112.361 178.787 109.369 181.218C106.333 183.688 103.86 186.778 102.115 190.282C100.37 193.785 99.3939 197.621 99.2517 201.532C99.1095 205.444 99.8047 209.34 101.291 212.961C102.777 216.582 105.019 219.844 107.868 222.528L134.98 248.106Z" fill="#8B865C"/>
<path d="M172.761 268.431C172.642 268.43 172.526 268.391 172.431 268.319C172.336 268.247 172.266 268.146 172.233 268.032C172.2 267.917 172.205 267.795 172.247 267.683C172.289 267.571 172.365 267.476 172.466 267.412L184.909 259.516C185.033 259.437 185.182 259.411 185.325 259.443C185.468 259.475 185.592 259.563 185.67 259.686C185.749 259.809 185.775 259.959 185.743 260.102C185.711 260.244 185.624 260.369 185.5 260.447L173.056 268.343C172.968 268.399 172.866 268.43 172.761 268.431Z" fill="#363E44"/>
<path d="M175.462 272.377C175.342 272.377 175.226 272.338 175.13 272.267C175.035 272.195 174.965 272.094 174.932 271.979C174.898 271.865 174.903 271.742 174.944 271.63C174.986 271.519 175.063 271.423 175.164 271.359L187.607 263.463C187.731 263.387 187.879 263.363 188.021 263.396C188.162 263.429 188.284 263.516 188.362 263.638C188.44 263.761 188.466 263.908 188.436 264.05C188.406 264.192 188.321 264.316 188.2 264.396L175.757 272.297C175.668 272.351 175.566 272.379 175.462 272.377Z" fill="#363E44"/>
<path d="M174.503 220.741C174.503 220.741 223.271 221.119 260.655 221.669L252.501 144.618C252.501 144.618 215.378 130.715 174.3 133.356L174.503 220.741Z" fill="white"/>
<path d="M241.984 140.729L250.038 223.744L319.331 225.316C319.331 225.316 322.257 197.365 297.074 169.2C291.224 162.681 284.156 157.369 276.269 153.56C267.542 149.318 253.249 142.808 241.984 140.729Z" fill="#629BFF"/>
<path d="M187.903 132.66L190.603 221.224C190.603 221.224 124.1 239.011 124.08 194.655C124.08 175.634 129.281 161.589 134.522 152.264C137.077 147.713 140.587 143.77 144.812 140.705C149.036 137.641 153.875 135.528 158.994 134.512C166.697 132.983 176.943 131.754 187.903 132.66Z" fill="#629BFF"/>
<path d="M159.194 177.899C159.109 177.9 159.025 177.881 158.949 177.844C158.873 177.807 158.806 177.752 158.755 177.685C158.703 177.618 158.668 177.54 158.651 177.457C158.635 177.374 158.638 177.288 158.661 177.206L161.664 165.916C161.702 165.775 161.794 165.654 161.92 165.581C162.047 165.507 162.197 165.487 162.339 165.524C162.48 165.562 162.601 165.654 162.674 165.781C162.747 165.907 162.768 166.058 162.73 166.199L159.727 177.491C159.695 177.609 159.626 177.712 159.53 177.786C159.433 177.86 159.315 177.9 159.194 177.899Z" fill="#363E44"/>
<path d="M133.093 191.479C133.017 191.479 132.942 191.463 132.873 191.434C132.739 191.375 132.634 191.266 132.58 191.13C132.527 190.994 132.529 190.842 132.587 190.708C132.65 190.566 139.062 176.3 157.429 177.999C157.503 178.004 157.575 178.023 157.642 178.056C157.708 178.089 157.767 178.135 157.815 178.191C157.863 178.247 157.9 178.313 157.922 178.383C157.945 178.454 157.953 178.528 157.946 178.601C157.939 178.675 157.918 178.747 157.883 178.812C157.848 178.877 157.801 178.935 157.743 178.981C157.686 179.028 157.619 179.062 157.548 179.083C157.477 179.103 157.403 179.109 157.329 179.101C139.78 177.474 133.844 190.591 133.598 191.149C133.555 191.247 133.485 191.331 133.395 191.389C133.305 191.448 133.2 191.479 133.093 191.479Z" fill="#363E44"/>
<path d="M256.585 198.967C253.229 196.775 240.745 185.422 233.392 188.205C225.987 191.006 221.649 198.609 220.128 206.38C220.145 206.408 220.165 206.438 220.18 206.465C220.701 208.595 221.807 211.701 224.435 214.191C227.438 217.029 229.563 216.346 233.195 218.849C239.361 223.069 239.261 229.338 241.842 228.75C243.608 228.344 243.821 224.695 243.148 221.314C242.457 217.843 240.55 215.891 240.993 215.518C241.494 215.107 243.16 217.342 245.498 219.93C246.587 221.131 247.545 226.277 250.04 226.079C252.043 225.922 252.373 220.323 250.04 216.018C248.401 212.973 245.268 211.764 245.608 211.228C245.858 210.828 247.713 211.596 249.112 212.73C251.417 214.607 252.453 219.858 254.748 219.632C257.001 219.412 257.206 214.517 255.324 210.422C253.737 206.968 250.181 205.782 250.599 205.119C250.894 204.651 252.601 204.851 255.879 206.308C258.632 207.524 263.162 211.659 264.864 208.981C266.316 206.726 261.646 202.278 256.585 198.967Z" fill="#84524D"/>
<path d="M160.72 183.24C157.19 183.718 153.861 185.164 151.101 187.416C148.342 189.669 146.259 192.641 145.083 196.004C142.831 202.554 143.049 210.753 153.112 217.157C173.054 229.853 227.14 207.977 227.14 207.977L237.287 187.875C212.447 181.881 185.009 179.861 160.72 183.24Z" fill="#84524D"/>
<path d="M332.418 228.087C331.59 229.858 330.274 231.356 328.624 232.405C326.974 233.454 325.058 234.009 323.103 234.005H259.088L287.762 172.721H358.324L332.418 228.087Z" fill="#363E44"/>
<path d="M217.059 227.854C217.059 228.666 217.219 229.47 217.53 230.22C217.841 230.97 218.297 231.652 218.871 232.226C219.445 232.8 220.127 233.255 220.877 233.566C221.628 233.876 222.432 234.036 223.244 234.035H282.281L285.174 227.854H217.059Z" fill="#363E44"/>
<path d="M350.568 201.45C350.342 203.747 349.967 205.592 345.985 205.204C342.003 204.816 335.927 202.336 336.152 200.036C336.377 197.736 342.822 196.49 346.801 196.88C350.78 197.27 350.793 199.15 350.568 201.45Z" fill="#84524D"/>
<path d="M333.439 205.942C333.664 203.645 340.106 202.396 344.088 202.786C348.07 203.177 348.093 205.059 347.855 207.356L333.439 205.942Z" fill="#84524D"/>
<path d="M347.855 207.356C347.63 209.656 347.252 211.501 343.272 211.11C339.293 210.72 333.214 208.242 333.439 205.942L347.855 207.356Z" fill="#84524D"/>
<path d="M330.724 211.851C330.949 209.554 337.393 208.305 341.375 208.695C345.357 209.086 345.365 210.968 345.129 213.265L330.724 211.851Z" fill="#84524D"/>
<path d="M345.139 213.265C344.914 215.565 344.539 217.407 340.557 217.019C336.575 216.632 330.498 214.151 330.724 211.854L345.139 213.265Z" fill="#84524D"/>
<path d="M331.051 217.197C331.229 215.37 336.352 214.377 339.516 214.694C342.679 215.012 342.689 216.501 342.519 218.328L331.051 217.197Z" fill="#84524D"/>
<path d="M342.509 218.321C342.331 220.148 342.031 221.614 338.867 221.304C335.704 220.994 330.859 219.024 331.051 217.197L342.509 218.321Z" fill="#84524D"/>
<path d="M200.991 114.045C202.857 112.663 203.053 109.765 201.428 107.573C199.804 105.38 196.974 104.724 195.109 106.107C193.243 107.489 193.047 110.387 194.672 112.579C196.296 114.771 199.126 115.428 200.991 114.045Z" fill="#84524D"/>
<path d="M221.492 106.559C220.098 108.904 220.588 111.767 222.583 112.953C224.578 114.14 227.338 113.204 228.722 110.854C230.106 108.503 229.628 105.645 227.631 104.459C225.634 103.273 222.881 104.214 221.492 106.559Z" fill="#84524D"/>
<path d="M210.48 144.806C208.141 144.698 205.94 143.666 204.361 141.936C202.783 140.206 201.956 137.92 202.063 135.581L202.881 110.533L220.526 111.344L219.705 136.399C219.595 138.737 218.562 140.935 216.832 142.512C215.102 144.088 212.818 144.913 210.48 144.806Z" fill="#84524D"/>
<path d="M213.638 130.74C199.485 131.576 198.967 107.943 198.967 107.943L224.047 107.094C224.047 107.094 227.363 129.927 213.638 130.74Z" fill="#363E44"/>
<path d="M205.886 109.868C210.723 108.726 213.719 103.879 212.578 99.0417C211.436 94.2041 206.589 91.2081 201.751 92.3499C196.914 93.4916 193.918 98.3388 195.059 103.176C196.201 108.014 201.048 111.01 205.886 109.868Z" fill="#363E44"/>
<path d="M223.777 108.909C224.177 116.772 219.077 112.635 212.384 112.978C205.692 113.321 199.941 118.006 199.54 110.143C199.14 102.279 204.24 97.7868 210.935 97.4464C217.63 97.106 223.379 101.045 223.777 108.909Z" fill="#84524D"/>
<path d="M223.777 113.279C223.743 113.281 223.71 113.281 223.677 113.279C223.605 113.265 223.537 113.236 223.476 113.196C223.415 113.155 223.363 113.103 223.323 113.042C223.282 112.981 223.255 112.912 223.241 112.84C223.227 112.768 223.228 112.694 223.244 112.623C223.657 110.311 223.565 107.936 222.973 105.663C222.944 105.524 222.97 105.379 223.044 105.259C223.119 105.138 223.237 105.051 223.374 105.015C223.512 104.979 223.658 104.997 223.782 105.065C223.906 105.134 223.999 105.247 224.042 105.383C224.339 106.529 224.52 107.703 224.58 108.886C224.649 110.206 224.565 111.53 224.33 112.831C224.306 112.959 224.237 113.075 224.136 113.157C224.035 113.239 223.907 113.282 223.777 113.279Z" fill="#363E44"/>
<path d="M199.911 114.405C199.791 114.405 199.674 114.366 199.579 114.293C199.483 114.221 199.413 114.12 199.38 114.004C198.698 111.588 198.548 109.053 198.94 106.574C198.963 106.429 199.043 106.3 199.161 106.215C199.28 106.129 199.427 106.094 199.572 106.117C199.716 106.14 199.845 106.22 199.931 106.338C200.017 106.457 200.052 106.605 200.028 106.749C199.662 109.069 199.803 111.441 200.441 113.702C200.482 113.842 200.464 113.993 200.394 114.121C200.323 114.249 200.204 114.344 200.063 114.385C200.013 114.398 199.962 114.404 199.911 114.405Z" fill="#363E44"/>
<path d="M212.502 113.832C212.384 113.835 212.268 113.8 212.171 113.732C212.075 113.664 212.002 113.568 211.964 113.456C211.926 113.344 211.925 113.223 211.961 113.11C211.997 112.998 212.068 112.9 212.164 112.831C212.399 112.65 212.542 112.473 212.545 112.355C212.545 112.288 212.489 112.205 212.367 112.032C212.139 111.745 211.977 111.411 211.894 111.054C211.815 110.635 211.85 110.203 211.996 109.802C212.02 109.734 212.057 109.671 212.106 109.617C212.154 109.563 212.212 109.519 212.277 109.487C212.342 109.456 212.413 109.438 212.485 109.433C212.558 109.429 212.63 109.439 212.698 109.463C212.767 109.487 212.83 109.524 212.884 109.572C212.938 109.62 212.982 109.679 213.013 109.744C213.045 109.809 213.063 109.88 213.067 109.952C213.072 110.025 213.061 110.097 213.038 110.165C212.957 110.381 212.935 110.614 212.975 110.841C213.028 111.046 213.127 111.237 213.263 111.399C213.501 111.673 213.637 112.022 213.646 112.385C213.646 112.863 213.365 113.311 212.837 113.717C212.742 113.791 212.623 113.832 212.502 113.832Z" fill="#363E44"/>
<path d="M210.615 117.313C209.944 117.32 209.283 117.15 208.7 116.82C208.116 116.489 207.63 116.01 207.291 115.431C207.249 115.368 207.22 115.298 207.206 115.224C207.191 115.149 207.193 115.073 207.209 114.999C207.226 114.925 207.257 114.856 207.302 114.795C207.346 114.734 207.403 114.682 207.468 114.644C207.533 114.606 207.606 114.581 207.681 114.572C207.756 114.562 207.832 114.568 207.904 114.59C207.977 114.611 208.044 114.647 208.102 114.695C208.161 114.743 208.208 114.803 208.242 114.87C208.502 115.316 208.883 115.678 209.342 115.914C209.8 116.15 210.317 116.25 210.83 116.202C210.972 116.198 211.109 116.249 211.215 116.343C211.32 116.438 211.385 116.57 211.396 116.711C211.408 116.852 211.364 116.992 211.275 117.102C211.186 117.213 211.058 117.284 210.918 117.303C210.83 117.308 210.73 117.313 210.615 117.313Z" fill="white"/>
<path d="M197.941 106.018C197.941 106.018 204.421 106.977 211.141 99.0581C211.141 99.0581 223.619 115.376 233.22 95.697C233.22 95.697 227.596 98.1797 224.58 94.2579C219.78 88.0186 208.26 82.9781 203.7 94.5082L197.941 106.018Z" fill="#363E44"/>
<path d="M219.617 106.939H219.59C219.59 107.002 219.54 107.082 219.475 107.082C219.416 107.192 219.367 107.306 219.329 107.425C219.244 107.605 218.972 107.462 219.057 107.285C219.112 107.165 218.709 107.41 218.529 107.487C217.958 107.738 217.377 107.968 216.789 108.178C216.516 108.276 216.241 108.376 215.963 108.463C215.633 108.591 215.293 108.695 214.947 108.774C214.523 109.199 214.15 109.673 213.836 110.185C214.648 110.469 215.501 110.616 216.361 110.621C216.361 110.601 216.361 110.583 216.361 110.563C216.384 110.373 219.59 109.444 219.685 109.585C220.508 108.986 221.207 108.233 221.742 107.367C221.057 107.125 220.342 106.981 219.617 106.939Z" fill="white"/>
<path d="M217.25 107.245C216.379 107.575 215.593 108.097 214.95 108.771C215.056 109.398 215.393 109.962 215.896 110.35C216.027 110.454 216.169 110.543 216.319 110.616C217.005 110.629 217.689 110.521 218.338 110.298C218.814 110.124 219.263 109.887 219.675 109.592C219.906 109.184 220.02 108.721 220.005 108.253C219.99 107.784 219.846 107.329 219.59 106.937C218.797 106.885 218.002 106.99 217.25 107.245Z" fill="#363E44"/>
<path d="M203.722 107.96H203.752C203.77 108.02 203.815 108.098 203.878 108.09C203.95 108.193 204.01 108.303 204.058 108.418C204.16 108.589 204.418 108.418 204.308 108.251C204.24 108.136 204.668 108.341 204.854 108.401C205.447 108.596 206.047 108.764 206.653 108.901C206.936 108.971 207.219 109.044 207.504 109.104C207.846 109.198 208.195 109.266 208.548 109.309C209.014 109.69 209.434 110.124 209.799 110.603C209.019 110.965 208.186 111.195 207.331 111.286C207.325 111.268 207.32 111.25 207.316 111.231C207.274 111.044 203.99 110.441 203.91 110.591C203.029 110.078 202.257 109.398 201.638 108.589C202.3 108.283 203.002 108.072 203.722 107.96Z" fill="white"/>
<path d="M206.107 108.028C207.007 108.27 207.842 108.709 208.55 109.314C208.507 109.949 208.228 110.543 207.767 110.981C207.646 111.096 207.514 111.199 207.374 111.289C206.691 111.37 205.999 111.331 205.329 111.174C204.84 111.05 204.37 110.859 203.933 110.608C203.661 110.226 203.5 109.776 203.468 109.308C203.436 108.839 203.533 108.372 203.75 107.955C204.533 107.825 205.334 107.849 206.107 108.028Z" fill="#363E44"/>
<path d="M423.325 108.247C445.564 86.0082 445.564 49.9513 423.325 27.712C401.086 5.47276 365.029 5.47274 342.79 27.712C320.55 49.9512 320.55 86.0082 342.79 108.247C365.029 130.487 401.086 130.487 423.325 108.247Z" fill="white"/>
<path d="M383.056 119.826C354.467 119.826 331.207 96.5679 331.207 67.9792C331.207 39.3905 354.467 16.1301 383.056 16.1301C411.644 16.1301 434.902 39.388 434.902 67.9792C434.902 96.5704 411.644 119.826 383.056 119.826ZM383.056 17.2338C355.075 17.2338 332.31 40.0087 332.31 67.9792C332.31 95.9498 355.085 118.722 383.056 118.722C411.026 118.722 433.799 95.9473 433.799 67.9792C433.799 40.0112 411.036 17.2338 383.056 17.2338Z" fill="#639DFF"/>
<path d="M413.742 92.4459C413.619 92.4465 413.5 92.406 413.404 92.3308L382.715 68.4122C382.649 68.3608 382.596 68.2951 382.559 68.2201C382.522 68.1451 382.503 68.0628 382.503 67.9792V36.2421C382.512 36.1021 382.574 35.971 382.677 35.8752C382.779 35.7794 382.914 35.7261 383.054 35.7261C383.195 35.7261 383.33 35.7794 383.432 35.8752C383.535 35.971 383.597 36.1021 383.606 36.2421V67.7089L414.079 91.4598C414.17 91.5302 414.237 91.6272 414.27 91.7373C414.303 91.8474 414.301 91.965 414.263 92.0738C414.226 92.1825 414.156 92.2769 414.062 92.3436C413.969 92.4103 413.857 92.4461 413.742 92.4459Z" fill="#0D3579"/>
<path d="M382.47 408.899L383.321 405.76C384.015 403.2 385.388 400.875 387.295 399.03C389.201 397.186 391.571 395.891 394.153 395.282L426.283 387.698C426.283 387.698 421.14 417.098 395.422 415.241C395.432 415.241 385.276 413.279 382.47 408.899Z" fill="#D3E4FF"/>
<path d="M416.057 419.583V424.293C416.057 428.601 415.209 432.867 413.56 436.848C411.912 440.828 409.495 444.445 406.449 447.491C403.402 450.538 399.786 452.954 395.806 454.602C391.825 456.251 387.559 457.099 383.251 457.099C378.943 457.099 374.677 456.25 370.697 454.602C366.717 452.953 363.101 450.537 360.055 447.49C357.008 444.444 354.592 440.827 352.944 436.847C351.295 432.867 350.447 428.601 350.448 424.293V419.583H416.057Z" fill="#0D3579"/>
<path d="M456.431 342.892C456.431 342.892 462.187 380.115 439.605 384.572C420.084 388.426 406.304 375.5 406.461 374.854C406.463 374.848 406.463 374.841 406.461 374.834C407.019 372.56 408.059 370.431 409.511 368.594C410.962 366.756 412.792 365.252 414.875 364.183L456.431 342.892Z" fill="#D3E4FF"/>
<path d="M394.511 367.086L394.566 361.945C394.61 357.75 393.521 353.62 391.413 349.993C389.305 346.365 386.257 343.374 382.59 341.335L336.96 315.97C336.96 315.97 332.133 362.921 372.069 371.163C372.069 371.155 388.354 372.544 394.511 367.086Z" fill="#D3E4FF"/>
<path d="M380.273 396.581L380.203 395.867C379.888 392.76 378.645 389.82 376.636 387.429C374.628 385.038 371.946 383.307 368.94 382.46L341.993 374.854C341.993 374.854 339.618 391.345 358.299 397.411C370.479 401.363 380.273 396.581 380.273 396.581Z" fill="#D3E4FF"/>
<path d="M382.468 418.86C382.331 418.859 382.199 418.807 382.098 418.714C381.996 418.622 381.933 418.496 381.919 418.359L380.01 399.469C379.776 397.186 378.844 395.03 377.34 393.297C375.837 391.563 373.835 390.335 371.608 389.781L353.02 385.183C352.95 385.166 352.884 385.135 352.825 385.092C352.767 385.048 352.718 384.994 352.681 384.932C352.605 384.807 352.582 384.657 352.617 384.515C352.653 384.373 352.743 384.25 352.868 384.175C352.993 384.099 353.144 384.077 353.286 384.112L371.873 388.709C374.321 389.319 376.521 390.668 378.173 392.574C379.826 394.479 380.851 396.847 381.109 399.356L383.018 418.247C383.026 418.319 383.019 418.393 382.998 418.463C382.976 418.533 382.942 418.598 382.895 418.654C382.848 418.711 382.791 418.757 382.726 418.791C382.661 418.825 382.59 418.846 382.518 418.852L382.468 418.86Z" fill="#3E6BB6"/>
<path d="M391.38 418.86H391.345C391.198 418.851 391.062 418.784 390.965 418.674C390.867 418.564 390.818 418.42 390.827 418.274L393.802 369.608C394.014 366.016 393.118 362.445 391.235 359.378C389.352 356.311 386.573 353.896 383.273 352.46L357.938 341.495C357.863 341.473 357.794 341.435 357.735 341.384C357.676 341.333 357.628 341.27 357.595 341.2C357.563 341.129 357.545 341.052 357.544 340.974C357.543 340.896 357.559 340.818 357.59 340.747C357.622 340.675 357.668 340.611 357.726 340.559C357.784 340.506 357.852 340.467 357.926 340.443C358.001 340.419 358.079 340.412 358.157 340.42C358.234 340.429 358.309 340.454 358.376 340.494L383.711 351.459C387.219 352.985 390.174 355.551 392.176 358.811C394.177 362.071 395.13 365.867 394.904 369.686L391.928 418.342C391.918 418.481 391.857 418.612 391.755 418.708C391.654 418.804 391.52 418.858 391.38 418.86Z" fill="#3E6BB6"/>
<path d="M399.091 418.86C399.06 418.862 399.029 418.862 398.998 418.86C398.926 418.848 398.858 418.822 398.797 418.783C398.735 418.744 398.682 418.694 398.64 418.634C398.598 418.575 398.568 418.508 398.553 418.437C398.537 418.366 398.535 418.293 398.548 418.222L405.61 377.042C405.978 374.891 406.866 372.862 408.197 371.134C409.529 369.405 411.263 368.028 413.249 367.123L446.95 351.739C447.016 351.707 447.088 351.688 447.162 351.684C447.235 351.68 447.308 351.691 447.377 351.716C447.446 351.741 447.51 351.779 447.564 351.829C447.618 351.878 447.662 351.938 447.692 352.005C447.723 352.072 447.74 352.144 447.742 352.217C447.744 352.291 447.732 352.364 447.705 352.432C447.679 352.501 447.639 352.563 447.588 352.616C447.537 352.669 447.476 352.711 447.408 352.74L413.702 368.119C411.88 368.95 410.29 370.213 409.068 371.799C407.847 373.386 407.032 375.246 406.694 377.219L399.631 418.402C399.609 418.53 399.543 418.646 399.444 418.729C399.346 418.813 399.22 418.859 399.091 418.86Z" fill="#3E6BB6"/>
<path d="M374.909 417.266C374.483 414.542 373.483 411.94 371.975 409.633C370.468 407.325 368.487 405.363 366.165 403.878L361.092 400.625L360.841 403.548C360.689 405.387 360.938 407.238 361.572 408.971C362.206 410.705 363.209 412.28 364.512 413.587C365.815 414.894 367.387 415.902 369.118 416.542C370.849 417.181 372.699 417.437 374.539 417.291L374.909 417.266Z" fill="#D3E4FF"/>
</g>
<defs>
<clipPath id="clip0_2_17">
<rect width="458" height="458" fill="white"/>
</clipPath>
</defs>
</svg>
