<svg width="234" height="54" viewBox="0 0 234 54" fill="none" xmlns="http://www.w3.org/2000/svg">
<g clip-path="url(#clip0_2_6)">
<path d="M6.08039 27.0008C6.07904 22.4147 7.36333 17.9195 9.78838 14.0222C12.2134 10.1249 15.6828 6.98067 19.805 4.94415C23.9273 2.90763 28.5384 2.05986 33.1182 2.49649C37.6981 2.93312 42.0644 4.63677 45.7247 7.41526C41.8825 3.78042 37.0555 1.3483 31.841 0.419868C26.6265 -0.508569 21.2533 0.107424 16.3864 2.19162C11.5194 4.27582 7.37236 7.73674 4.45832 12.1461C1.54427 16.5555 -0.0088501 21.7198 -0.0088501 27C-0.0088501 32.2802 1.54427 37.4445 4.45832 41.8539C7.37236 46.2633 11.5194 49.7242 16.3864 51.8084C21.2533 53.8926 26.6265 54.5086 31.841 53.5801C37.0555 52.6517 41.8825 50.2196 45.7247 46.5847C42.0645 49.3631 37.6983 51.0668 33.1186 51.5035C28.5389 51.9401 23.9279 51.0925 19.8057 49.0562C15.6836 47.0199 12.2142 43.8759 9.78902 39.9788C7.36384 36.0818 6.07934 31.5868 6.08039 27.0008Z" fill="url(#paint0_linear_2_6)"/>
<path d="M31.335 4.40642C25.5303 4.40004 19.946 6.62238 15.7416 10.612C18.8046 8.28688 22.4584 6.86104 26.2909 6.49532C30.1234 6.12961 33.9822 6.83858 37.4321 8.54226C40.8819 10.2459 43.7857 12.8766 45.8158 16.1375C47.8458 19.3984 48.9216 23.1598 48.9216 26.9976C48.9216 30.8354 47.8458 34.5968 45.8158 37.8577C43.7857 41.1186 40.8819 43.7492 37.4321 45.4529C33.9822 47.1566 30.1234 47.8656 26.2909 47.4999C22.4584 47.1341 18.8046 45.7083 15.7416 43.3831C18.427 45.9238 21.6959 47.77 25.2625 48.7603C28.8291 49.7506 32.5847 49.8548 36.2011 49.0638C39.8174 48.2728 43.1842 46.6107 46.0072 44.2228C48.8301 41.8349 51.0232 38.794 52.3947 35.366C53.7661 31.9379 54.2742 28.2272 53.8744 24.5582C53.4746 20.8892 52.1792 17.3737 50.1013 14.3191C48.0235 11.2645 45.2266 8.76386 41.9552 7.03583C38.6837 5.30781 35.0374 4.40502 31.335 4.40642Z" fill="url(#paint1_linear_2_6)"/>
<path d="M27.8235 15.5213C27.697 15.52 27.5715 15.5438 27.4542 15.5911C27.337 15.6385 27.2303 15.7086 27.1404 15.7973C27.0504 15.8861 26.9791 15.9917 26.9304 16.1081C26.8816 16.2245 26.8566 16.3494 26.8566 16.4755V23.6466C26.2704 23.814 25.7383 24.1311 25.3129 24.5666C24.8875 25.0021 24.5836 25.5408 24.4313 26.1293C24.279 26.7179 24.2836 27.3359 24.4446 27.9221C24.6056 28.5084 24.9175 29.0425 25.3493 29.4717C25.7811 29.9008 26.3179 30.2101 26.9065 30.3688C27.495 30.5276 28.115 30.5303 28.705 30.3768C29.295 30.2232 29.8345 29.9187 30.2701 29.4933C30.7057 29.068 31.0222 28.5366 31.1884 27.9518H40.3163C40.4526 27.9695 40.5912 27.9579 40.7227 27.918C40.8542 27.878 40.9757 27.8106 41.079 27.7201C41.1823 27.6297 41.2651 27.5183 41.3218 27.3934C41.3785 27.2685 41.4078 27.1331 41.4078 26.996C41.4078 26.8589 41.3785 26.7234 41.3218 26.5986C41.2651 26.4737 41.1823 26.3623 41.079 26.2719C40.9757 26.1814 40.8542 26.114 40.7227 26.074C40.5912 26.034 40.4526 26.0225 40.3163 26.0402H31.1884C31.0243 25.4704 30.7173 24.9516 30.2963 24.5329C29.8753 24.1141 29.3543 23.8091 28.7824 23.6466V16.4755C28.7824 16.3501 28.7576 16.2258 28.7094 16.11C28.6612 15.9941 28.5905 15.8888 28.5014 15.8002C28.4124 15.7116 28.3067 15.6413 28.1903 15.5935C28.074 15.5456 27.9494 15.5211 27.8235 15.5213ZM29.5382 27.0008C29.5379 27.3388 29.437 27.6691 29.2484 27.95C29.0598 28.2308 28.7919 28.4497 28.4786 28.5788C28.1652 28.7079 27.8205 28.7415 27.488 28.6754C27.1555 28.6093 26.8501 28.4464 26.6105 28.2073C26.3708 27.9681 26.2077 27.6636 26.1416 27.3321C26.0756 27.0006 26.1097 26.657 26.2395 26.3447C26.3693 26.0325 26.5891 25.7657 26.871 25.5779C27.153 25.3902 27.4844 25.29 27.8235 25.29C28.0488 25.29 28.2719 25.3342 28.4801 25.4202C28.6882 25.5062 28.8773 25.6323 29.0366 25.7912C29.1958 25.95 29.3221 26.1387 29.4081 26.3462C29.4942 26.5538 29.5384 26.7762 29.5382 27.0008Z" fill="url(#paint2_linear_2_6)"/>
</g>
<path d="M81.3579 23.8408H72.9358L71.5817 28.1648H66L74.1909 5.84078H80.1359L88.3267 28.1648H82.745L81.3579 23.8408ZM74.323 19.4832H79.9707L77.1634 10.0642L74.323 19.4832Z" fill="#4D4D4D"/>
<path d="M87.8698 11.7402H90.3468V7.44972H95.6313V11.7402H100.288V15.8296H95.6313V22.2654C95.6313 22.9134 95.7634 23.4274 96.0276 23.8073C96.3138 24.1648 96.8203 24.3436 97.5469 24.3436C97.9432 24.3436 98.3395 24.3212 98.7359 24.2765C99.1542 24.2095 99.5505 24.1201 99.9249 24.0084L100.288 27.7291C99.7597 27.9749 99.1102 28.1648 98.3395 28.2989C97.5689 28.433 96.7982 28.5 96.0276 28.5C94.9927 28.5 94.112 28.3436 93.3854 28.0307C92.6808 27.6955 92.0973 27.2598 91.6349 26.7235C91.1945 26.1648 90.8643 25.5168 90.6441 24.7793C90.4459 24.0196 90.3468 23.2151 90.3468 22.3659V15.8296H87.8698V11.7402Z" fill="#4D4D4D"/>
<path d="M100.744 11.7402H103.221V7.44972H108.505V11.7402H113.162V15.8296H108.505V22.2654C108.505 22.9134 108.637 23.4274 108.902 23.8073C109.188 24.1648 109.694 24.3436 110.421 24.3436C110.817 24.3436 111.214 24.3212 111.61 24.2765C112.028 24.2095 112.425 24.1201 112.799 24.0084L113.162 27.7291C112.634 27.9749 111.984 28.1648 111.214 28.2989C110.443 28.433 109.672 28.5 108.902 28.5C107.867 28.5 106.986 28.3436 106.259 28.0307C105.555 27.6955 104.971 27.2598 104.509 26.7235C104.069 26.1648 103.738 25.5168 103.518 24.7793C103.32 24.0196 103.221 23.2151 103.221 22.3659V15.8296H100.744V11.7402Z" fill="#4D4D4D"/>
<path d="M122.502 11.405C124.616 11.405 126.29 12.0419 127.523 13.3156C128.756 14.567 129.372 16.3101 129.372 18.5447C129.372 19.3939 129.273 20.2989 129.075 21.2598H119.695C119.739 22.2654 120.069 23.081 120.686 23.7067C121.324 24.3101 122.293 24.6117 123.592 24.6117C124.385 24.6117 125.211 24.5447 126.069 24.4106C126.95 24.2542 127.71 24.0307 128.348 23.7402L129.009 27.1927C128.172 27.6173 127.225 27.9413 126.168 28.1648C125.134 28.3883 124.055 28.5 122.932 28.5C121.523 28.5 120.279 28.2989 119.2 27.8966C118.121 27.4721 117.218 26.8911 116.491 26.1536C115.765 25.4162 115.214 24.5335 114.84 23.5056C114.466 22.4777 114.278 21.338 114.278 20.0866C114.278 18.7458 114.466 17.5391 114.84 16.4665C115.236 15.3939 115.787 14.4888 116.491 13.7514C117.218 12.9916 118.088 12.4106 119.101 12.0084C120.113 11.6061 121.247 11.405 122.502 11.405ZM122.337 14.824C121.501 14.824 120.851 15.1034 120.389 15.662C119.948 16.1983 119.728 16.9469 119.728 17.9078H124.418C124.462 17.7291 124.484 17.5391 124.484 17.338C124.484 16.6229 124.297 16.0307 123.923 15.5615C123.548 15.0698 123.02 14.824 122.337 14.824Z" fill="#4D4D4D"/>
<path d="M131.886 28.1648V11.7402H136.973V13.8855C137.479 12.9916 138.129 12.3547 138.921 11.9749C139.736 11.595 140.595 11.405 141.497 11.405C142.576 11.405 143.49 11.6397 144.239 12.1089C144.987 12.5559 145.593 13.1592 146.055 13.919C146.54 14.6788 146.881 15.5615 147.079 16.567C147.299 17.5503 147.409 18.5894 147.409 19.6844V28.1648H142.125V19.5838C142.125 18.2207 141.916 17.2263 141.497 16.6006C141.079 15.9525 140.441 15.6285 139.582 15.6285C139.031 15.6285 138.547 15.7514 138.129 15.9972C137.732 16.243 137.413 16.5447 137.171 16.9022V28.1648H131.886Z" fill="#4D4D4D"/>
<path d="M165.988 28.1648H160.934V26.0866C160.428 26.824 159.768 27.4162 158.953 27.8631C158.16 28.2877 157.202 28.5 156.079 28.5C155.177 28.5 154.329 28.3101 153.536 27.9302C152.744 27.5279 152.05 26.9693 151.456 26.2542C150.883 25.5168 150.432 24.6341 150.101 23.6061C149.771 22.5782 149.606 21.4274 149.606 20.1536C149.606 18.7235 149.826 17.4609 150.267 16.3659C150.729 15.2709 151.334 14.3547 152.083 13.6173C152.854 12.8799 153.745 12.3324 154.758 11.9749C155.771 11.595 156.85 11.405 157.995 11.405C158.567 11.405 159.074 11.4497 159.514 11.5391C159.955 11.6061 160.351 11.6955 160.703 11.8073V4.5H165.988V28.1648ZM157.995 24.3771C159.118 24.3771 160.021 23.9972 160.703 23.2374V15.6955C160.219 15.5168 159.591 15.4274 158.821 15.4274C157.5 15.4274 156.509 15.8408 155.848 16.6676C155.21 17.4944 154.89 18.6229 154.89 20.0531C154.89 21.3268 155.133 22.3659 155.617 23.1704C156.123 23.9749 156.916 24.3771 157.995 24.3771Z" fill="#4D4D4D"/>
<path d="M178.323 26.5559C177.817 27.0698 177.123 27.5279 176.242 27.9302C175.384 28.3101 174.437 28.5 173.402 28.5C172.675 28.5 172.026 28.3771 171.453 28.1313C170.881 27.8855 170.396 27.5503 170 27.1257C169.626 26.7011 169.328 26.2095 169.108 25.6508C168.91 25.0698 168.811 24.4553 168.811 23.8073C168.811 22.2877 169.273 21.148 170.198 20.3883C171.145 19.6061 172.477 19.148 174.195 19.014C174.833 18.9693 175.505 18.9358 176.209 18.9134C176.936 18.8911 177.574 18.8687 178.125 18.8464V18.3101C178.125 16.5223 177.145 15.6285 175.185 15.6285C174.415 15.6285 173.666 15.7179 172.94 15.8966C172.235 16.0754 171.585 16.3212 170.991 16.6341L170.033 12.9134C170.804 12.4665 171.707 12.1089 172.741 11.8408C173.798 11.5503 174.943 11.405 176.176 11.405C178.444 11.405 180.217 12.0084 181.494 13.2151C182.771 14.3994 183.409 16.1872 183.409 18.5782V28.1648H178.323V26.5559ZM175.45 24.9804C175.956 24.9804 176.429 24.9134 176.87 24.7793C177.332 24.6453 177.751 24.4665 178.125 24.243V21.7961C177.596 21.8408 177.123 21.8967 176.705 21.9637C176.286 22.0084 175.879 22.0531 175.483 22.0978C174.404 22.2318 173.864 22.7458 173.864 23.6397C173.864 24.0419 173.996 24.3659 174.261 24.6117C174.547 24.8575 174.943 24.9804 175.45 24.9804Z" fill="#4D4D4D"/>
<path d="M186.668 28.1648V11.7402H191.754V13.8855C192.26 12.9916 192.91 12.3547 193.703 11.9749C194.517 11.595 195.376 11.405 196.279 11.405C197.358 11.405 198.271 11.6397 199.02 12.1089C199.769 12.5559 200.374 13.1592 200.837 13.919C201.321 14.6788 201.662 15.5615 201.86 16.567C202.081 17.5503 202.191 18.5894 202.191 19.6844V28.1648H196.906V19.5838C196.906 18.2207 196.697 17.2263 196.279 16.6006C195.86 15.9525 195.222 15.6285 194.363 15.6285C193.813 15.6285 193.328 15.7514 192.91 15.9972C192.514 16.243 192.194 16.5447 191.952 16.9022V28.1648H186.668Z" fill="#4D4D4D"/>
<path d="M213.074 11.405C213.91 11.405 214.725 11.4944 215.518 11.6732C216.332 11.852 217.037 12.0978 217.631 12.4106L217.103 16.2318C216.685 16.0531 216.178 15.8966 215.584 15.7626C215.011 15.6285 214.428 15.5615 213.833 15.5615C212.424 15.5615 211.367 15.9525 210.663 16.7346C209.958 17.5168 209.606 18.5894 209.606 19.9525C209.606 21.3156 209.958 22.3883 210.663 23.1704C211.367 23.9525 212.424 24.3436 213.833 24.3436C214.428 24.3436 215.011 24.2765 215.584 24.1425C216.178 24.0084 216.685 23.852 217.103 23.6732L217.631 27.4944C217.037 27.8073 216.332 28.0531 215.518 28.2318C214.725 28.4106 213.91 28.5 213.074 28.5C211.708 28.5 210.475 28.2989 209.375 27.8966C208.296 27.4721 207.382 26.8911 206.633 26.1536C205.885 25.3939 205.312 24.4888 204.916 23.4385C204.519 22.3883 204.321 21.2263 204.321 19.9525C204.321 18.6788 204.519 17.5168 204.916 16.4665C205.312 15.4162 205.885 14.5223 206.633 13.7849C207.382 13.0251 208.296 12.4441 209.375 12.0419C210.475 11.6173 211.708 11.405 213.074 11.405Z" fill="#4D4D4D"/>
<path d="M227.13 11.405C229.244 11.405 230.917 12.0419 232.15 13.3156C233.384 14.567 234 16.3101 234 18.5447C234 19.3939 233.901 20.2989 233.703 21.2598H224.323C224.367 22.2654 224.697 23.081 225.314 23.7067C225.952 24.3101 226.921 24.6117 228.22 24.6117C229.013 24.6117 229.838 24.5447 230.697 24.4106C231.578 24.2542 232.338 24.0307 232.976 23.7402L233.637 27.1927C232.8 27.6173 231.853 27.9413 230.796 28.1648C229.761 28.3883 228.683 28.5 227.56 28.5C226.15 28.5 224.906 28.2989 223.827 27.8966C222.749 27.4721 221.846 26.8911 221.119 26.1536C220.393 25.4162 219.842 24.5335 219.468 23.5056C219.094 22.4777 218.906 21.338 218.906 20.0866C218.906 18.7458 219.094 17.5391 219.468 16.4665C219.864 15.3939 220.415 14.4888 221.119 13.7514C221.846 12.9916 222.716 12.4106 223.728 12.0084C224.741 11.6061 225.875 11.405 227.13 11.405ZM226.965 14.824C226.128 14.824 225.479 15.1034 225.016 15.662C224.576 16.1983 224.356 16.9469 224.356 17.9078H229.046C229.09 17.7291 229.112 17.5391 229.112 17.338C229.112 16.6229 228.925 16.0307 228.55 15.5615C228.176 15.0698 227.648 14.824 226.965 14.824Z" fill="#4D4D4D"/>
<path d="M66.7283 44.5153H69.2518C69.805 44.5153 70.2886 44.3995 70.7026 44.1679C71.1166 43.9325 71.4403 43.6063 71.6736 43.1895C71.907 42.7688 72.0236 42.2805 72.0236 41.7247V41.7132C72.0236 41.1535 71.907 40.6653 71.6736 40.2484C71.4403 39.8277 71.1166 39.5016 70.7026 39.27C70.2886 39.0384 69.805 38.9226 69.2518 38.9226H66.7283V40.1384H68.8961C69.4192 40.1384 69.8257 40.2754 70.1155 40.5495C70.4053 40.8235 70.5502 41.2133 70.5502 41.7189V41.7305C70.5502 42.2323 70.4053 42.6221 70.1155 42.9C69.8257 43.174 69.4192 43.3111 68.8961 43.3111H66.7283V44.5153ZM66 47.2768H67.4565V38.9226H66V47.2768Z" fill="#4C4C4C" fill-opacity="0.36"/>
<path d="M77.7979 47.4042C78.4152 47.4042 78.9439 47.273 79.3843 47.0105C79.8284 46.7442 80.169 46.366 80.4061 45.8758C80.647 45.3856 80.7674 44.7989 80.7674 44.1158V44.1042C80.7674 43.4249 80.647 42.8402 80.4061 42.35C80.1652 41.8598 79.8228 41.4835 79.3786 41.2211C78.9383 40.9586 78.4114 40.8274 77.7979 40.8274C77.1845 40.8274 76.6557 40.9586 76.2116 41.2211C75.7712 41.4835 75.4306 41.8618 75.1898 42.3558C74.9489 42.846 74.8284 43.4288 74.8284 44.1042V44.1158C74.8284 44.7989 74.947 45.3856 75.1841 45.8758C75.425 46.366 75.7675 46.7442 76.2116 47.0105C76.6557 47.273 77.1845 47.4042 77.7979 47.4042ZM77.7979 46.2347C77.4705 46.2347 77.192 46.1518 76.9624 45.9858C76.7366 45.8198 76.5635 45.5786 76.443 45.2621C76.3226 44.9456 76.2624 44.5654 76.2624 44.1216V44.11C76.2624 43.6623 76.3226 43.2821 76.443 42.9695C76.5635 42.653 76.7385 42.4118 76.9681 42.2458C77.1976 42.076 77.4743 41.9911 77.7979 41.9911C78.1216 41.9911 78.3963 42.076 78.6222 42.2458C78.8517 42.4118 79.0267 42.653 79.1472 42.9695C79.2676 43.2821 79.3278 43.6623 79.3278 44.11V44.1216C79.3278 44.5654 79.2676 44.9456 79.1472 45.2621C79.0267 45.5747 78.8517 45.816 78.6222 45.9858C78.3963 46.1518 78.1216 46.2347 77.7979 46.2347Z" fill="#4C4C4C" fill-opacity="0.36"/>
<path d="M84.9271 47.2768H86.378L87.5748 42.6916H87.6708L88.8733 47.2768H90.3411L92.0177 40.9489H90.6233L89.6015 45.7079H89.4999L88.3087 40.9489H86.9707L85.7852 45.7079H85.6836L84.6618 40.9489H83.2504L84.9271 47.2768Z" fill="#4C4C4C" fill-opacity="0.36"/>
<path d="M97.442 47.4042C97.8598 47.4042 98.2267 47.3502 98.5429 47.2421C98.859 47.1302 99.1262 46.9854 99.3445 46.8079C99.5666 46.6265 99.7416 46.4316 99.8695 46.2232C100.001 46.0109 100.092 45.8025 100.141 45.5979L100.152 45.5458H98.8195L98.8026 45.5863C98.7574 45.6828 98.6784 45.7851 98.5654 45.8932C98.4525 45.9974 98.3039 46.0881 98.1195 46.1653C97.9388 46.2386 97.7224 46.2753 97.4702 46.2753C97.1466 46.2753 96.8662 46.2019 96.6291 46.0553C96.3957 45.9047 96.2151 45.6925 96.0871 45.4184C95.9592 45.1405 95.8952 44.8067 95.8952 44.4168V43.8379C95.8952 43.4326 95.9592 43.0911 96.0871 42.8132C96.2188 42.5314 96.3957 42.3191 96.6178 42.1763C96.8436 42.0296 97.1014 41.9563 97.3912 41.9563C97.681 41.9563 97.935 42.0258 98.1533 42.1647C98.3754 42.3037 98.5485 42.5121 98.6727 42.79C98.7969 43.0679 98.859 43.4172 98.859 43.8379V44.4111L99.5252 43.5079H95.2008V44.4747H100.214V44C100.214 43.3632 100.099 42.8074 99.8695 42.3326C99.64 41.8579 99.3125 41.4893 98.8872 41.2268C98.4657 40.9605 97.9614 40.8274 97.3743 40.8274C96.7909 40.8274 96.2828 40.9644 95.85 41.2384C95.4172 41.5086 95.0822 41.8907 94.8451 42.3847C94.6118 42.8788 94.4951 43.4577 94.4951 44.1216V44.1274C94.4951 44.7989 94.6137 45.3798 94.8508 45.87C95.0879 46.3602 95.4247 46.7384 95.8613 47.0047C96.3016 47.2711 96.8285 47.4042 97.442 47.4042Z" fill="#4C4C4C" fill-opacity="0.36"/>
<path d="M103.436 47.2768H104.842V43.6005C104.842 43.2995 104.906 43.0389 105.034 42.8189C105.162 42.5951 105.343 42.4233 105.576 42.3037C105.809 42.184 106.082 42.1242 106.395 42.1242C106.519 42.1242 106.637 42.1319 106.75 42.1474C106.867 42.1589 106.982 42.1782 107.095 42.2053V40.9142C107.027 40.8949 106.94 40.8795 106.835 40.8679C106.733 40.8525 106.63 40.8447 106.525 40.8447C106.118 40.8447 105.777 40.9393 105.503 41.1284C105.232 41.3175 105.044 41.5819 104.938 41.9216H104.842V40.9489H103.436V47.2768Z" fill="#4C4C4C" fill-opacity="0.36"/>
<path d="M112.547 47.4042C112.965 47.4042 113.332 47.3502 113.648 47.2421C113.964 47.1302 114.231 46.9854 114.45 46.8079C114.672 46.6265 114.847 46.4316 114.975 46.2232C115.106 46.0109 115.197 45.8025 115.246 45.5979L115.257 45.5458H113.925L113.908 45.5863C113.863 45.6828 113.784 45.7851 113.671 45.8932C113.558 45.9974 113.409 46.0881 113.225 46.1653C113.044 46.2386 112.828 46.2753 112.575 46.2753C112.252 46.2753 111.971 46.2019 111.734 46.0553C111.501 45.9047 111.32 45.6925 111.192 45.4184C111.064 45.1405 111 44.8067 111 44.4168V43.8379C111 43.4326 111.064 43.0911 111.192 42.8132C111.324 42.5314 111.501 42.3191 111.723 42.1763C111.949 42.0296 112.207 41.9563 112.496 41.9563C112.786 41.9563 113.04 42.0258 113.259 42.1647C113.481 42.3037 113.654 42.5121 113.778 42.79C113.902 43.0679 113.964 43.4172 113.964 43.8379V44.4111L114.63 43.5079H110.306V44.4747H115.319V44C115.319 43.3632 115.204 42.8074 114.975 42.3326C114.745 41.8579 114.418 41.4893 113.992 41.2268C113.571 40.9605 113.067 40.8274 112.479 40.8274C111.896 40.8274 111.388 40.9644 110.955 41.2384C110.522 41.5086 110.187 41.8907 109.95 42.3847C109.717 42.8788 109.6 43.4577 109.6 44.1216V44.1274C109.6 44.7989 109.719 45.3798 109.956 45.87C110.193 46.3602 110.53 46.7384 110.966 47.0047C111.407 47.2711 111.934 47.4042 112.547 47.4042Z" fill="#4C4C4C" fill-opacity="0.36"/>
<path d="M120.766 47.3811C121.203 47.3811 121.581 47.2846 121.901 47.0916C122.224 46.8986 122.471 46.6304 122.64 46.2868H122.742V47.2768H124.142V38.5H122.742V41.9563H122.64C122.482 41.6167 122.236 41.3465 121.901 41.1458C121.569 40.9451 121.191 40.8447 120.766 40.8447C120.247 40.8447 119.797 40.9779 119.417 41.2442C119.04 41.5067 118.749 41.883 118.542 42.3732C118.338 42.8595 118.237 43.4384 118.237 44.11V44.1216C118.237 44.7854 118.34 45.3625 118.547 45.8526C118.754 46.3428 119.048 46.7211 119.428 46.9874C119.808 47.2498 120.254 47.3811 120.766 47.3811ZM121.206 46.1653C120.886 46.1653 120.612 46.0842 120.382 45.9221C120.152 45.7561 119.976 45.5207 119.851 45.2158C119.727 44.9109 119.665 44.5461 119.665 44.1216V44.11C119.665 43.6854 119.727 43.3207 119.851 43.0158C119.976 42.707 120.152 42.4716 120.382 42.3095C120.615 42.1435 120.89 42.0605 121.206 42.0605C121.526 42.0605 121.801 42.1435 122.03 42.3095C122.264 42.4754 122.443 42.7109 122.567 43.0158C122.695 43.3207 122.759 43.6854 122.759 44.11V44.1216C122.759 44.5423 122.695 44.907 122.567 45.2158C122.443 45.5207 122.264 45.7561 122.03 45.9221C121.801 46.0842 121.526 46.1653 121.206 46.1653Z" fill="#4C4C4C" fill-opacity="0.36"/>
<path d="M136.063 47.3811C136.579 47.3811 137.025 47.2498 137.401 46.9874C137.781 46.7211 138.075 46.3428 138.282 45.8526C138.492 45.3625 138.598 44.7854 138.598 44.1216V44.11C138.598 43.4384 138.494 42.8595 138.287 42.3732C138.08 41.883 137.787 41.5067 137.407 41.2442C137.03 40.9779 136.582 40.8447 136.063 40.8447C135.638 40.8447 135.258 40.9451 134.923 41.1458C134.591 41.3465 134.347 41.6167 134.189 41.9563H134.093V38.5H132.687V47.2768H134.093V46.2868H134.189C134.358 46.6304 134.605 46.8986 134.928 47.0916C135.252 47.2846 135.63 47.3811 136.063 47.3811ZM135.623 46.1653C135.303 46.1653 135.026 46.0842 134.793 45.9221C134.563 45.7561 134.384 45.5207 134.257 45.2158C134.132 44.907 134.07 44.5423 134.07 44.1216V44.11C134.07 43.6854 134.132 43.3207 134.257 43.0158C134.384 42.7109 134.565 42.4754 134.798 42.3095C135.032 42.1435 135.307 42.0605 135.623 42.0605C135.943 42.0605 136.217 42.1435 136.447 42.3095C136.677 42.4716 136.853 42.707 136.978 43.0158C137.102 43.3207 137.164 43.6854 137.164 44.11V44.1216C137.164 44.5461 137.102 44.9109 136.978 45.2158C136.853 45.5207 136.677 45.7561 136.447 45.9221C136.217 46.0842 135.943 46.1653 135.623 46.1653Z" fill="#4C4C4C" fill-opacity="0.36"/>
<path d="M142.233 49.5C142.688 49.5 143.076 49.4363 143.395 49.3089C143.719 49.1816 143.994 48.9654 144.22 48.6605C144.449 48.3556 144.654 47.9407 144.835 47.4158L147.048 40.9489H145.569L143.943 46.5532L144.316 45.8932H143.83L144.214 46.5532L142.588 40.9489H141.053L143.26 47.2826L143.187 47.5721C143.111 47.8577 142.985 48.0642 142.808 48.1916C142.635 48.3228 142.404 48.3884 142.114 48.3884C142.042 48.3884 141.969 48.3865 141.894 48.3826C141.819 48.3826 141.753 48.3788 141.696 48.3711V49.4768C141.783 49.4846 141.871 49.4904 141.962 49.4942C142.056 49.4981 142.146 49.5 142.233 49.5Z" fill="#4C4C4C" fill-opacity="0.36"/>
<path d="M156.784 47.2768H158.156L159.805 41.2963H159.889L161.549 47.2768H162.915L165.094 38.9226H163.593L162.198 45.1926H162.119L160.493 38.9226H159.201L157.592 45.1926H157.513L156.113 38.9226H154.6L156.784 47.2768Z" fill="#4C4C4C" fill-opacity="0.36"/>
<path d="M170.304 47.4042C170.921 47.4042 171.45 47.273 171.891 47.0105C172.335 46.7442 172.675 46.366 172.912 45.8758C173.153 45.3856 173.274 44.7989 173.274 44.1158V44.1042C173.274 43.4249 173.153 42.8402 172.912 42.35C172.672 41.8598 172.329 41.4835 171.885 41.2211C171.445 40.9586 170.918 40.8274 170.304 40.8274C169.691 40.8274 169.162 40.9586 168.718 41.2211C168.278 41.4835 167.937 41.8618 167.696 42.3558C167.455 42.846 167.335 43.4288 167.335 44.1042V44.1158C167.335 44.7989 167.453 45.3856 167.69 45.8758C167.931 46.366 168.274 46.7442 168.718 47.0105C169.162 47.273 169.691 47.4042 170.304 47.4042ZM170.304 46.2347C169.977 46.2347 169.698 46.1518 169.469 45.9858C169.243 45.8198 169.07 45.5786 168.949 45.2621C168.829 44.9456 168.769 44.5654 168.769 44.1216V44.11C168.769 43.6623 168.829 43.2821 168.949 42.9695C169.07 42.653 169.245 42.4118 169.474 42.2458C169.704 42.076 169.981 41.9911 170.304 41.9911C170.628 41.9911 170.903 42.076 171.128 42.2458C171.358 42.4118 171.533 42.653 171.653 42.9695C171.774 43.2821 171.834 43.6623 171.834 44.11V44.1216C171.834 44.5654 171.774 44.9456 171.653 45.2621C171.533 45.5747 171.358 45.816 171.128 45.9858C170.903 46.1518 170.628 46.2347 170.304 46.2347Z" fill="#4C4C4C" fill-opacity="0.36"/>
<path d="M176.502 47.2768H177.908V43.6005C177.908 43.2995 177.972 43.0389 178.1 42.8189C178.228 42.5951 178.408 42.4233 178.642 42.3037C178.875 42.184 179.148 42.1242 179.46 42.1242C179.584 42.1242 179.703 42.1319 179.816 42.1474C179.932 42.1589 180.047 42.1782 180.16 42.2053V40.9142C180.092 40.8949 180.006 40.8795 179.9 40.8679C179.799 40.8525 179.695 40.8447 179.59 40.8447C179.183 40.8447 178.843 40.9393 178.568 41.1284C178.297 41.3175 178.109 41.5819 178.004 41.9216H177.908V40.9489H176.502V47.2768Z" fill="#4C4C4C" fill-opacity="0.36"/>
<path d="M183.174 47.2768H184.58V38.5H183.174V47.2768ZM187.052 47.2768H188.74L186.019 43.5253L184.975 44.4053L187.052 47.2768ZM184.461 45.1811L185.251 44.3532L185.895 43.8379L188.576 40.9489H186.951L184.675 43.5484H184.41L184.461 45.1811Z" fill="#4C4C4C" fill-opacity="0.36"/>
<path d="M192.516 44.5153H195.039C195.593 44.5153 196.076 44.3995 196.49 44.1679C196.904 43.9325 197.228 43.6063 197.461 43.1895C197.695 42.7688 197.811 42.2805 197.811 41.7247V41.7132C197.811 41.1535 197.695 40.6653 197.461 40.2484C197.228 39.8277 196.904 39.5016 196.49 39.27C196.076 39.0384 195.593 38.9226 195.039 38.9226H192.516V40.1384H194.684C195.207 40.1384 195.613 40.2754 195.903 40.5495C196.193 40.8235 196.338 41.2133 196.338 41.7189V41.7305C196.338 42.2323 196.193 42.6221 195.903 42.9C195.613 43.174 195.207 43.3111 194.684 43.3111H192.516V44.5153ZM191.788 47.2768H193.244V38.9226H191.788V47.2768Z" fill="#4C4C4C" fill-opacity="0.36"/>
<path d="M203.586 47.4042C204.203 47.4042 204.732 47.273 205.172 47.0105C205.616 46.7442 205.957 46.366 206.194 45.8758C206.435 45.3856 206.555 44.7989 206.555 44.1158V44.1042C206.555 43.4249 206.435 42.8402 206.194 42.35C205.953 41.8598 205.61 41.4835 205.166 41.2211C204.726 40.9586 204.199 40.8274 203.586 40.8274C202.972 40.8274 202.443 40.9586 201.999 41.2211C201.559 41.4835 201.218 41.8618 200.977 42.3558C200.737 42.846 200.616 43.4288 200.616 44.1042V44.1158C200.616 44.7989 200.735 45.3856 200.972 45.8758C201.213 46.366 201.555 46.7442 201.999 47.0105C202.443 47.273 202.972 47.4042 203.586 47.4042ZM203.586 46.2347C203.258 46.2347 202.98 46.1518 202.75 45.9858C202.524 45.8198 202.351 45.5786 202.231 45.2621C202.11 44.9456 202.05 44.5654 202.05 44.1216V44.11C202.05 43.6623 202.11 43.2821 202.231 42.9695C202.351 42.653 202.526 42.4118 202.756 42.2458C202.985 42.076 203.262 41.9911 203.586 41.9911C203.909 41.9911 204.184 42.076 204.41 42.2458C204.639 42.4118 204.814 42.653 204.935 42.9695C205.055 43.2821 205.116 43.6623 205.116 44.11V44.1216C205.116 44.5654 205.055 44.9456 204.935 45.2621C204.814 45.5747 204.639 45.816 204.41 45.9858C204.184 46.1518 203.909 46.2347 203.586 46.2347Z" fill="#4C4C4C" fill-opacity="0.36"/>
<path d="M209.783 47.2768H211.189V43.6005C211.189 43.2995 211.253 43.0389 211.381 42.8189C211.509 42.5951 211.69 42.4233 211.923 42.3037C212.156 42.184 212.429 42.1242 212.742 42.1242C212.866 42.1242 212.984 42.1319 213.097 42.1474C213.214 42.1589 213.329 42.1782 213.442 42.2053V40.9142C213.374 40.8949 213.287 40.8795 213.182 40.8679C213.08 40.8525 212.977 40.8447 212.871 40.8447C212.465 40.8447 212.124 40.9393 211.85 41.1284C211.579 41.3175 211.39 41.5819 211.285 41.9216H211.189V40.9489H209.783V47.2768Z" fill="#4C4C4C" fill-opacity="0.36"/>
<path d="M219.109 47.3058C219.244 47.3058 219.374 47.3 219.498 47.2884C219.626 47.2768 219.739 47.2614 219.837 47.2421V46.1305C219.754 46.1382 219.679 46.146 219.611 46.1537C219.547 46.1575 219.464 46.1595 219.363 46.1595C219.073 46.1595 218.862 46.0881 218.73 45.9453C218.602 45.7986 218.538 45.5689 218.538 45.2563V42.0663H219.837V40.9489H218.538V39.3974H217.11V40.9489H216.15V42.0663H217.11V45.5979C217.11 46.2039 217.266 46.64 217.579 46.9063C217.891 47.1726 218.401 47.3058 219.109 47.3058Z" fill="#4C4C4C" fill-opacity="0.36"/>
<path d="M224.742 47.3811C225.016 47.3811 225.269 47.3425 225.498 47.2653C225.728 47.1881 225.931 47.0761 226.108 46.9295C226.289 46.7828 226.435 46.6091 226.548 46.4084H226.644V47.2768H228.033V42.9521C228.033 42.5082 227.937 42.1281 227.745 41.8116C227.553 41.4912 227.273 41.2481 226.904 41.0821C226.535 40.9123 226.083 40.8274 225.549 40.8274C225.064 40.8274 224.634 40.9007 224.262 41.0474C223.889 41.194 223.59 41.4005 223.364 41.6668C223.138 41.9332 223.003 42.2439 222.958 42.5989L222.952 42.6511H224.279L224.284 42.6279C224.356 42.4195 224.493 42.2593 224.697 42.1474C224.9 42.0316 225.161 41.9737 225.481 41.9737C225.865 41.9737 226.155 42.0586 226.351 42.2284C226.546 42.3944 226.644 42.6356 226.644 42.9521V44.9553C226.644 45.2061 226.58 45.4319 226.452 45.6326C226.324 45.8295 226.149 45.9858 225.927 46.1016C225.705 46.2174 225.453 46.2753 225.171 46.2753C224.858 46.2753 224.601 46.2 224.397 46.0495C224.198 45.8989 224.098 45.6886 224.098 45.4184V45.4068C224.098 45.1444 224.192 44.9398 224.38 44.7932C224.569 44.6465 224.86 44.5616 225.255 44.5384L227.339 44.3995V43.45L225.058 43.5947C224.305 43.6372 223.726 43.8205 223.319 44.1447C222.916 44.4689 222.715 44.9128 222.715 45.4763V45.4879C222.715 45.8739 222.802 46.2096 222.975 46.4953C223.152 46.777 223.392 46.9951 223.697 47.1495C224.006 47.3039 224.354 47.3811 224.742 47.3811Z" fill="#4C4C4C" fill-opacity="0.36"/>
<path d="M231.594 47.2768H233V38.5H231.594V47.2768Z" fill="#4C4C4C" fill-opacity="0.36"/>
<defs>
<linearGradient id="paint0_linear_2_6" x1="22.8579" y1="-0.000823975" x2="22.8579" y2="54.0008" gradientUnits="userSpaceOnUse">
<stop stop-color="#629BFF"/>
<stop offset="1" stop-color="#8BDCFF"/>
</linearGradient>
<linearGradient id="paint1_linear_2_6" x1="34.8743" y1="4.4064" x2="34.8743" y2="49.5888" gradientUnits="userSpaceOnUse">
<stop stop-color="#629BFF"/>
<stop offset="1" stop-color="#8BDCFF"/>
</linearGradient>
<linearGradient id="paint2_linear_2_6" x1="32.8641" y1="15.5212" x2="32.8641" y2="30.49" gradientUnits="userSpaceOnUse">
<stop stop-color="#629BFF"/>
<stop offset="1" stop-color="#8BDCFF"/>
</linearGradient>
<clipPath id="clip0_2_6">
<rect width="54" height="54" fill="white"/>
</clipPath>
</defs>
</svg>
